<svg width="183" height="147" viewBox="0 0 183 147" fill="none" xmlns="http://www.w3.org/2000/svg">
<path d="M41.6532 108.396C37.6792 108.396 33.7794 107.539 29.9828 105.827C25.6043 103.852 21.3987 101.426 17.4834 98.6179C17.3122 98.4951 17.1509 98.3648 16.9984 98.227L12.7866 101.604C12.4945 101.839 12.0856 101.865 11.7655 101.669C11.6197 101.58 8.15646 99.4477 5.22441 96.0381C2.28214 92.617 0.992591 89.257 0.939248 89.116C0.822784 88.8084 0.886795 88.4613 1.10505 88.2158L3.69349 85.2995C3.75706 85.2281 3.82907 85.1696 3.90641 85.124C2.58308 82.5579 0.806782 77.7835 0.16623 69.9221C-0.400533 62.9606 0.483616 57.2522 2.79378 52.9552C2.91736 52.7251 3.10006 52.3488 3.29787 51.9423C3.63659 51.2464 3.98643 50.5261 4.2278 50.1329C4.46562 49.7455 4.72433 49.2991 5.01149 48.8044C7.23942 44.9635 11.3859 37.8149 20.8599 32.3672C28.8893 27.7505 32.8846 27.2705 36.4092 26.8467C38.506 26.5949 40.3161 26.3768 42.753 25.29C48.9531 22.5257 50.1915 20.2637 50.2035 20.2411C50.3218 20.016 50.5351 19.844 50.7827 19.7828C51.029 19.7207 51.2957 19.7611 51.5055 19.9056C52.155 20.3533 55.3973 22.7008 55.4324 24.9695C55.4498 26.0692 55.067 26.8219 54.7874 27.3707C54.5007 27.934 54.5109 27.9473 54.6318 28.1082C54.7616 28.2802 54.9981 28.3751 55.3733 28.5156C56.2686 28.8512 57.6212 29.3574 57.6839 31.962C57.7341 34.0365 56.6357 35.1948 55.7418 36.0348C57.5088 36.9133 62.0398 39.3105 65.6337 42.4506C67.9554 44.479 69.7762 46.8505 70.8955 48.4817C71.7489 49.7264 72.2633 50.5473 72.5571 51.1094C73.7022 50.491 74.4805 50.2255 75.0855 50.019C75.7954 49.7769 76.1866 49.6431 76.8009 49.0752C78.8444 47.1865 82.1831 48.671 82.5868 48.9494C82.8148 49.1063 82.9628 49.3536 82.9931 49.6271C83.0495 50.1351 82.7584 50.4494 82.2294 51.0199C81.3497 51.9684 79.52 53.9423 78.6412 57.2916C77.854 60.293 78.0184 63.7811 78.1634 66.8578C78.2549 68.8006 78.3412 70.6353 78.1656 72.0857C77.5917 76.8269 76.3973 86.6936 69.0952 94.804C65.6035 98.6826 61.2214 102.071 56.6886 104.446C56.6095 104.505 56.5215 104.55 56.4286 104.581C55.3102 105.157 54.1842 105.67 53.0609 106.114C49.2091 107.635 45.3978 108.396 41.6532 108.396ZM36.7711 106.124C43.4135 107.364 49.8808 105.879 55.5178 103.039C55.9085 102.246 57.0394 99.5922 56.9549 95.5802C56.8562 90.8523 56.0343 89.3589 56.0259 89.3448C55.7871 88.9259 55.9227 88.3846 56.3375 88.1373C56.7522 87.8895 57.2847 88.0101 57.5417 88.4179C57.6519 88.593 58.6227 90.2792 58.733 95.543C58.7872 98.1543 58.3769 100.242 57.9319 101.712C61.7579 99.4322 65.1158 96.57 67.7718 93.6205C69.1503 92.0895 70.2998 90.488 71.2613 88.8678C70.9359 88.0748 70.2034 85.7836 70.6012 81.9364C71.0644 77.4559 71.2346 75.0126 71.2364 74.9887C71.2698 74.5002 71.7014 74.1363 72.1841 74.1651C72.6744 74.1983 73.0443 74.6216 73.01 75.1101C73.0083 75.1349 72.8362 77.6035 72.3699 82.1186C72.1663 84.092 72.2886 85.5898 72.4753 86.6213C75.3175 80.8256 76.0092 75.1092 76.4008 71.8738C76.5582 70.5711 76.4755 68.8082 76.3879 66.942C76.2368 63.7376 76.0657 60.1064 76.9218 56.8439C77.8371 53.3559 79.64 51.218 80.6811 50.0806C79.853 49.8656 78.6848 49.7517 78.01 50.3762C77.1187 51.1998 76.4435 51.4303 75.6616 51.6972C74.9224 51.9489 74.0031 52.2628 72.4033 53.249C70.9266 54.1595 70.8915 55.3528 70.9564 57.2252C70.9999 58.4636 71.0484 59.8675 70.3229 61.1082C69.0543 63.278 67.5096 62.7793 66.4881 62.4517C65.9351 62.2735 65.4541 62.1184 64.9527 62.2345C64.9056 62.6175 65.2341 63.6911 65.4781 64.489C66.0391 66.3228 66.8068 68.8339 66.3912 71.3685C66.1587 72.7843 65.7328 73.6504 65.0505 74.0941C64.2544 74.6128 63.4067 74.396 62.7261 74.2205C61.8313 73.9909 61.657 74.0117 61.4001 74.3836C60.4164 75.8029 60.1417 77.0986 59.7611 78.8916C59.6007 79.6474 59.4184 80.5042 59.1597 81.4679C58.7556 82.9732 57.98 84.026 56.8535 84.5969C55.1421 85.4648 52.6773 85.2259 49.0985 83.8451C46.082 82.6816 43.3362 82.4138 41.5643 82.3948C41.555 82.3948 41.5456 82.3948 41.5363 82.3948C40.7637 82.3948 40.0663 82.7547 39.299 83.3168C34.1666 88.222 28.5146 90.9897 22.9447 91.2411C21.8685 91.2894 20.735 91.2495 19.5873 91.144C18.336 91.4574 17.5816 92.4219 17.2744 93.3435C16.8917 94.4907 17.018 96.1006 18.5218 97.1786C22.342 99.9189 26.4444 102.286 30.7158 104.212C32.0067 104.794 33.2989 105.259 34.5862 105.617C35.1539 105.19 37.7806 103.112 40.2032 99.5279C40.016 99.1051 38.9221 96.5461 38.7896 94.2797C38.7238 93.1493 38.6856 91.6959 38.8759 91.1901L40.5401 91.8142C40.5401 91.8142 40.5512 91.7943 40.5637 91.7411C40.5588 91.7615 40.453 92.2628 40.565 94.1764C40.6344 95.3661 41.0353 96.7052 41.3709 97.6445C44.0736 92.9729 44.471 91.3084 44.4746 91.2916C44.5817 90.8182 45.0533 90.515 45.529 90.6161C46.0051 90.7176 46.3118 91.1781 46.2149 91.6537C46.1758 91.8466 45.7446 93.687 42.6903 98.91C40.6188 102.452 38.2109 104.864 36.7711 106.124ZM2.80756 88.9733C3.25964 89.9862 4.47273 92.4401 6.57486 94.8843C8.67522 97.3271 11.1276 99.1086 12.1767 99.8183L15.5039 97.1503C14.2855 96.2176 12.3301 94.7012 11.0823 93.6316C7.78307 90.8067 5.40667 87.5544 5.30709 87.417C5.2662 87.3607 5.2333 87.3013 5.20708 87.2406C5.10439 87.1049 4.97504 86.9258 4.82524 86.7002L2.80756 88.9733ZM8.72278 88.7911C9.65983 89.8505 10.8743 91.1169 12.2403 92.2867C13.076 93.0026 14.2655 93.9459 15.3186 94.765C15.2803 94.1143 15.3666 93.4445 15.5875 92.7827C15.8475 92.0026 16.2658 91.3253 16.8006 90.7787C13.7374 90.2668 10.7938 89.4441 8.72278 88.7911ZM6.66555 86.2206C7.88308 86.6648 13.9352 88.7925 19.5037 89.3519C19.8509 89.2885 20.2123 89.2601 20.5799 89.2663C22.2975 89.2973 23.94 89.1759 25.4572 88.8997C31.0319 87.8838 34.6645 84.8407 36.8346 83.0224C37.2169 82.7015 37.5601 82.4152 37.8655 82.1762C37.9619 82.1009 38.0597 82.026 38.1584 81.9519C39.6933 80.4741 41.1838 78.7919 42.6107 76.9164C48.2517 69.5019 47.9009 65.9562 47.7325 64.2527L47.7085 64.0049C47.6689 63.5643 47.4208 62.766 47.1581 61.9216C46.4754 59.7256 45.5405 56.7185 46.4238 54.4995C47.239 52.4516 49.3154 52.2672 51.3228 52.089C52.7626 51.9614 54.2518 51.8288 55.4124 51.0615C57.8995 49.4166 56.646 45.1842 55.5138 42.9435C55.0661 42.0579 54.5145 41.3916 54.0277 40.8043C53.1934 39.7977 52.331 38.7564 52.7257 37.1864C52.9778 36.1833 53.6748 35.5352 54.3482 34.9084C55.2026 34.1132 55.9409 33.4261 55.9067 32.0055C55.8725 30.5972 55.4729 30.4478 54.7483 30.1761C54.2624 29.9944 53.6579 29.7678 53.2107 29.1739C52.4141 28.1171 52.8693 27.2226 53.2014 26.5692C53.4396 26.1011 53.6646 25.6588 53.6543 24.9978C53.6419 24.1676 52.3537 22.8218 51.1935 21.8879C50.2902 22.9429 48.1783 24.8139 43.4793 26.9092C40.7966 28.1051 38.7692 28.3489 36.6226 28.6069C33.2665 29.0103 29.4627 29.4673 21.7481 33.9031C12.6861 39.1137 8.84547 45.7352 6.55086 49.6923C6.2557 50.2007 5.98899 50.6599 5.74495 51.0584C5.54891 51.378 5.18796 52.12 4.89858 52.7158C4.68788 53.1484 4.49318 53.5483 4.3616 53.7934C2.37193 57.4929 1.5269 62.3839 1.8434 68.3481C3.17429 63.8795 5.89208 57.2354 11.2717 51.0611C20.2896 40.7103 37.8103 35.0622 38.5518 34.8269C39.0212 34.6797 39.52 34.9368 39.6684 35.4031C39.8173 35.8694 39.5591 36.3681 39.0914 36.5166C38.923 36.5702 22.9963 41.7064 13.9614 50.7805C15.7124 51.3554 19.7784 52.5075 22.6056 51.8625C23.7684 51.5979 24.7735 51.3465 25.6599 51.1245C27.854 50.5748 29.4392 50.1777 31.3048 50.1054C31.3164 50.1045 31.3288 50.1045 31.3399 50.1045C31.8151 50.1045 32.2094 50.4791 32.2276 50.9565C32.2467 51.4458 31.8649 51.8581 31.3741 51.8767C29.773 51.9392 28.3279 52.2849 26.3898 52.7694L28.122 54.4273C28.4763 54.7668 28.4879 55.3275 28.1483 55.6808C27.8073 56.0341 27.2455 56.0456 26.8912 55.707L24.3499 53.2748C23.9253 53.3772 23.4764 53.4835 23.0003 53.5917C19.1321 54.4703 13.6845 52.5855 12.635 52.1998C12.6279 52.2078 12.6208 52.2162 12.6137 52.2242C9.72695 55.5376 7.63371 59.0244 6.12501 62.2066C8.49519 60.9207 12.3652 59.2611 14.8283 60.4872C16.4641 61.301 17.7087 62.7656 18.9134 64.1818C20.2296 65.7301 21.4729 67.1925 23.1021 67.7421C23.5671 67.899 23.8164 68.4021 23.6591 68.8663C23.5017 69.3299 22.9981 69.579 22.5318 69.4217C20.4359 68.7142 18.9725 66.993 17.5572 65.3285C17.0433 64.7239 16.5419 64.1344 16.0258 63.6091C15.6528 64.7607 15.031 66.9394 15.011 68.7182C14.9825 71.251 16.2507 74.8375 16.2632 74.8734C16.4276 75.3349 16.1863 75.842 15.724 76.006C15.2617 76.1709 14.7527 75.9297 14.5882 75.4683C14.5313 75.31 13.2004 71.5502 13.2324 68.6987C13.2604 66.1951 14.2802 63.1751 14.5655 62.3781C14.3922 62.266 14.2157 62.1645 14.0348 62.0741C11.8157 60.9712 6.72022 63.801 5.10973 64.8799C5.04883 64.9207 4.98482 64.9531 4.91858 64.977C2.91069 70.0227 2.42261 73.7644 2.41461 73.83C2.41327 73.8384 2.41239 73.8464 2.41105 73.8548C3.63704 81.8793 6.08856 85.4688 6.66555 86.2206ZM41.8724 80.6261C43.7936 80.6727 46.6345 80.9932 49.7399 82.1909C52.7302 83.3447 54.8532 83.6217 56.0481 83.0153C56.7144 82.678 57.17 82.0215 57.4425 81.0087C57.6888 80.0911 57.8582 79.2946 58.0213 78.5246C58.4129 76.6806 58.7508 75.088 59.9372 73.3761C60.9387 71.9301 62.3354 72.2892 63.1693 72.5037C63.5302 72.5959 63.9387 72.7014 64.0788 72.6092C64.1361 72.572 64.4326 72.3229 64.6366 71.0817C64.9856 68.9553 64.3157 66.7656 63.7774 65.0063C63.2782 63.3737 62.9172 62.1942 63.4098 61.3134C63.5618 61.0421 63.8658 60.6857 64.4539 60.5315C65.4768 60.2633 66.3405 60.5408 67.0348 60.7642C68.007 61.0763 68.239 61.1525 68.7876 60.2146C69.2539 59.4167 69.2183 58.3821 69.1801 57.2868C69.1214 55.601 69.0489 53.5301 71.0235 52.0443C70.3772 50.8776 68.027 46.9001 64.4619 43.7844C60.7102 40.506 55.7298 37.9998 54.5212 37.4138C54.4918 37.4803 54.4678 37.5481 54.4505 37.6172C54.2882 38.2631 54.5492 38.6487 55.3986 39.6744C55.9183 40.3012 56.5646 41.0818 57.102 42.1448C58.8361 45.577 59.6918 50.3585 56.3957 52.5389C54.859 53.5549 53.0645 53.714 51.4811 53.855C49.5692 54.0248 48.469 54.1688 48.077 55.1538C47.4248 56.7912 48.2525 59.453 48.8566 61.3968C49.1607 62.3742 49.423 63.2186 49.4799 63.8458L49.5021 64.0781C49.6932 66.0072 50.0897 70.0201 44.0278 77.9882C43.3242 78.912 42.6049 79.7919 41.8724 80.6261Z" fill="#DFE2EB"/>
<path d="M183 42.0112C183 45.9692 182.14 49.8532 180.421 53.6345C178.438 57.9954 176.003 62.184 173.183 66.0835C173.06 66.254 172.929 66.4147 172.79 66.5665L176.181 70.7614C176.417 71.0522 176.443 71.4595 176.246 71.7783C176.157 71.9235 174.016 75.3728 170.593 78.293C167.158 81.2234 163.784 82.5077 163.642 82.5609C163.334 82.6769 162.985 82.6131 162.738 82.3957L159.81 79.8178C159.739 79.7544 159.68 79.6827 159.634 79.6057C157.058 80.9237 152.264 82.6928 144.371 83.3308C137.381 83.8953 131.649 83.0147 127.335 80.7138C127.104 80.5908 126.726 80.4088 126.318 80.2118C125.619 79.8744 124.896 79.526 124.501 79.2856C124.112 79.0487 123.664 78.7911 123.167 78.5051C119.311 76.2861 112.133 72.1564 106.664 62.7206C102.028 54.7236 101.546 50.7444 101.121 47.2341C100.868 45.1457 100.649 43.3429 99.5577 40.9159C96.7823 34.7408 94.5112 33.5074 94.4885 33.4954C94.2624 33.3776 94.0897 33.1651 94.0283 32.9185C93.966 32.6733 94.0065 32.4076 94.1516 32.1987C94.6011 31.5518 96.9581 28.3226 99.236 28.2876C100.34 28.2704 101.096 28.6515 101.647 28.93C102.213 29.2156 102.226 29.2054 102.387 29.085C102.56 28.9557 102.655 28.7202 102.796 28.3465C103.133 27.4549 103.642 26.1076 106.257 26.0452C108.34 25.9952 109.503 27.0892 110.346 27.9795C111.228 26.2197 113.635 21.707 116.788 18.1275C118.825 15.8152 121.206 14.0018 122.843 12.887C124.093 12.0369 124.917 11.5247 125.482 11.2321C124.861 10.0916 124.594 9.3164 124.387 8.71385C124.144 8.00682 124.01 7.61723 123.439 7.00538C121.543 4.97017 123.033 1.64486 123.313 1.24287C123.471 1.01575 123.719 0.868319 123.993 0.838214C124.504 0.781988 124.819 1.07197 125.392 1.59882C126.344 2.47497 128.326 4.29723 131.689 5.1725C134.703 5.95656 138.205 5.79275 141.294 5.64843C143.245 5.55722 145.087 5.47133 146.543 5.64621C151.303 6.21777 161.21 7.40737 169.353 14.68C173.248 18.1576 176.649 22.522 179.034 27.0365C179.094 27.1153 179.139 27.203 179.17 27.2955C179.748 28.4094 180.263 29.5308 180.709 30.6496C182.237 34.4858 183 38.2817 183 42.0112ZM180.719 46.8737C181.965 40.258 180.473 33.8168 177.621 28.2026C176.825 27.8135 174.161 26.6872 170.133 26.7713C165.386 26.8696 163.886 27.6882 163.872 27.6966C163.451 27.9343 162.908 27.7993 162.66 27.3862C162.411 26.9732 162.532 26.4428 162.941 26.1869C163.117 26.0771 164.81 25.1102 170.095 25.0004C172.717 24.9464 174.814 25.355 176.289 25.7982C174 21.9876 171.127 18.6433 168.165 15.998C166.628 14.6251 165.02 13.4802 163.393 12.5226C162.597 12.8467 160.296 13.5763 156.434 13.1801C151.935 12.7187 149.482 12.5492 149.458 12.5474C148.967 12.5142 148.602 12.0843 148.631 11.6035C148.664 11.1152 149.089 10.7469 149.58 10.7809C149.605 10.7827 152.083 10.954 156.617 11.4185C158.598 11.6212 160.102 11.4995 161.138 11.3135C155.318 8.48275 149.579 7.79387 146.33 7.40383C145.022 7.24711 143.252 7.32946 141.379 7.41667C138.161 7.5672 134.515 7.73765 131.24 6.88496C127.737 5.97339 125.591 4.17769 124.449 3.14083C124.233 3.96563 124.119 5.12911 124.746 5.80117C125.573 6.68883 125.804 7.36133 126.072 8.14008C126.325 8.87633 126.64 9.79189 127.63 11.3853C128.544 12.856 129.742 12.891 131.622 12.8263C132.866 12.7829 134.275 12.7347 135.521 13.4572C137.7 14.7208 137.199 16.2592 136.87 17.2766C136.691 17.8274 136.535 18.3064 136.652 18.8058C137.037 18.8527 138.114 18.5255 138.916 18.2825C140.757 17.7238 143.278 16.9592 145.823 17.3731C147.245 17.6047 148.114 18.0288 148.56 18.7084C149.08 19.5013 148.863 20.3456 148.687 21.0234C148.456 21.9146 148.477 22.0881 148.85 22.344C150.275 23.3238 151.576 23.5974 153.377 23.9764C154.135 24.1362 154.996 24.3177 155.963 24.5754C157.475 24.9778 158.532 25.7504 159.105 26.8722C159.976 28.5767 159.737 31.0316 158.35 34.596C157.182 37.6004 156.913 40.3351 156.894 42.0998C156.894 42.1091 156.894 42.1184 156.894 42.1277C156.894 42.8971 157.255 43.5918 157.82 44.3559C162.745 49.4676 165.524 55.0969 165.776 60.6442C165.825 61.716 165.785 62.845 165.679 63.9881C165.993 65.2344 166.962 65.9857 167.887 66.2916C169.039 66.6728 170.655 66.5471 171.738 65.0493C174.489 61.2445 176.865 57.1586 178.799 52.9045C179.383 51.6188 179.851 50.3318 180.21 49.0497C179.781 48.4843 177.695 45.8682 174.097 43.4554C173.672 43.6418 171.103 44.7313 168.827 44.8633C167.692 44.9288 166.233 44.9669 165.725 44.7774L166.352 43.1198C166.352 43.1198 166.331 43.1087 166.278 43.0963C166.299 43.1012 166.802 43.2066 168.723 43.095C169.918 43.026 171.262 42.6266 172.205 42.2924C167.515 39.6006 165.844 39.2048 165.827 39.2012C165.351 39.0945 165.047 38.6248 165.149 38.1511C165.25 37.6769 165.713 37.3715 166.19 37.468C166.384 37.5069 168.232 37.9364 173.476 40.9783C177.033 43.0414 179.455 45.4397 180.719 46.8737ZM163.499 80.7001C164.516 80.2499 166.98 79.0417 169.434 76.948C171.887 74.8561 173.675 72.4136 174.388 71.3688L171.709 68.055C170.773 69.2685 169.25 71.216 168.176 72.4588C165.34 75.7447 162.074 78.1115 161.936 78.2107C161.88 78.2514 161.82 78.2842 161.759 78.3103C161.623 78.4125 161.443 78.5414 161.217 78.6906L163.499 80.7001ZM163.316 74.8088C164.38 73.8755 165.651 72.666 166.826 71.3055C167.545 70.4731 168.492 69.2884 169.314 68.2396C168.661 68.2777 167.988 68.1918 167.324 67.9717C166.541 67.7128 165.861 67.2962 165.312 66.7636C164.798 69.8144 163.972 72.7461 163.316 74.8088ZM160.735 76.8577C161.181 75.6451 163.318 69.6174 163.879 64.0713C163.816 63.7256 163.787 63.3656 163.793 62.9995C163.824 61.2888 163.702 59.6529 163.425 58.1419C162.405 52.5897 159.35 48.9718 157.524 46.8104C157.202 46.4296 156.914 46.0878 156.674 45.7837C156.599 45.6876 156.524 45.5902 156.449 45.4919C154.965 43.9632 153.276 42.4787 151.393 41.0576C143.949 35.4394 140.389 35.7887 138.678 35.9565L138.43 35.9804C137.987 36.0198 137.186 36.2669 136.338 36.5285C134.133 37.2085 131.114 38.1396 128.886 37.2599C126.829 36.4479 126.644 34.38 126.465 32.3806C126.337 30.9466 126.204 29.4635 125.434 28.3075C123.782 25.8305 119.533 27.079 117.283 28.2066C116.394 28.6524 115.725 29.2019 115.135 29.6866C114.124 30.5176 113.079 31.3765 111.502 30.9834C110.495 30.7324 109.844 30.0382 109.215 29.3674C108.417 28.5165 107.727 27.7812 106.3 27.8152C104.886 27.8493 104.736 28.2473 104.464 28.969C104.281 29.4529 104.054 30.055 103.457 30.5004C102.396 31.2937 101.498 30.8404 100.842 30.5097C100.372 30.2724 99.928 30.0483 99.2644 30.0585C98.4308 30.0709 97.0796 31.3539 96.1419 32.5095C97.2011 33.4091 99.0797 35.5125 101.184 40.1925C102.384 42.8644 102.629 44.8836 102.888 47.0215C103.293 50.3641 103.752 54.1525 108.206 61.836C113.437 70.8614 120.086 74.6866 124.059 76.9719C124.569 77.2659 125.03 77.5315 125.431 77.7746C125.752 77.9698 126.497 78.3293 127.095 78.6175C127.529 78.8274 127.931 79.0213 128.177 79.1523C131.891 81.134 136.802 81.9756 142.79 81.6604C138.304 80.3349 131.633 77.628 125.433 72.2702C115.041 63.2886 109.37 45.8386 109.133 45.1001C108.986 44.6326 109.244 44.1359 109.712 43.988C110.18 43.8397 110.681 44.0969 110.83 44.5627C110.884 44.7304 116.041 60.5928 125.152 69.5912C125.729 67.8473 126.886 63.7977 126.238 60.982C125.972 59.8238 125.72 58.8228 125.497 57.94C124.945 55.7547 124.546 54.176 124.474 52.3179C124.473 52.3064 124.473 52.294 124.473 52.2829C124.473 51.8096 124.849 51.4169 125.328 51.3988C125.82 51.3797 126.234 51.76 126.252 52.2488C126.315 53.8435 126.662 55.2828 127.149 57.2131L128.813 55.4878C129.154 55.1349 129.717 55.1234 130.072 55.4617C130.426 55.8012 130.438 56.3608 130.098 56.7137L127.656 59.2448C127.759 59.6676 127.866 60.1147 127.974 60.5889C128.856 64.4415 126.964 69.8671 126.577 70.9123C126.585 70.9194 126.593 70.9265 126.601 70.9336C129.928 73.8086 133.429 75.8934 136.624 77.396C135.333 75.0354 133.667 71.1811 134.898 68.7279C135.715 67.0987 137.185 65.8591 138.607 64.6593C140.162 63.3484 141.63 62.1101 142.182 60.4875C142.339 60.0244 142.845 59.776 143.311 59.9327C143.776 60.0895 144.026 60.5911 143.868 61.0555C143.158 63.1429 141.43 64.6004 139.759 66.01C139.151 66.5218 138.56 67.0212 138.032 67.5352C139.188 67.9067 141.376 68.526 143.162 68.546C145.705 68.5743 149.306 67.3112 149.342 67.2988C149.805 67.135 150.315 67.3754 150.479 67.8358C150.645 68.2963 150.403 68.8032 149.939 68.967C149.78 69.0237 146.005 70.3492 143.142 70.3173C140.629 70.2894 137.596 69.2738 136.796 68.9896C136.684 69.1622 136.582 69.338 136.491 69.5182C135.384 71.7283 138.225 76.8032 139.308 78.4072C139.349 78.4679 139.382 78.5316 139.406 78.5976C144.472 80.5974 148.229 81.0835 148.294 81.0915C148.303 81.0928 148.311 81.0937 148.319 81.095C156.376 79.874 159.98 77.4323 160.735 76.8577ZM155.118 41.793C155.165 39.8795 155.487 37.05 156.689 33.9572C157.848 30.979 158.126 28.8645 157.517 27.6744C157.178 27.0108 156.519 26.557 155.502 26.2856C154.581 26.0404 153.781 25.8717 153.008 25.7092C151.157 25.3192 149.557 24.9827 147.839 23.801C146.387 22.8036 146.747 21.4125 146.963 20.582C147.055 20.2225 147.161 19.8156 147.069 19.6762C147.031 19.6191 146.781 19.3238 145.535 19.1206C143.4 18.773 141.201 19.4402 139.435 19.9763C137.796 20.4735 136.611 20.833 135.727 20.3425C135.455 20.1911 135.097 19.8882 134.942 19.3025C134.673 18.2838 134.951 17.4236 135.176 16.7321C135.489 15.7638 135.566 15.5327 134.624 14.9864C133.823 14.522 132.784 14.5574 131.684 14.5955C129.992 14.6539 127.912 14.7261 126.42 12.7595C125.249 13.4032 121.255 15.7439 118.127 19.2945C114.835 23.0311 112.319 27.9914 111.731 29.1952C111.797 29.2244 111.866 29.2483 111.935 29.2656C112.583 29.4272 112.971 29.1673 114 28.3213C114.63 27.8037 115.414 27.16 116.481 26.6248C119.927 24.8977 124.728 24.0454 126.917 27.3282C127.937 28.8587 128.097 30.646 128.239 32.223C128.409 34.1272 128.554 35.2229 129.543 35.6134C131.187 36.2629 133.859 35.4385 135.811 34.8369C136.792 34.534 137.64 34.2728 138.27 34.2162L138.503 34.194C140.44 34.0037 144.469 33.6087 152.47 39.6462C153.397 40.347 154.281 41.0633 155.118 41.793Z" fill="#DFE2EB"/>
<ellipse cx="38.5" cy="140" rx="33.5" ry="7" fill="#F5F6FB"/>
<ellipse cx="149.5" cy="124" rx="33.5" ry="7" fill="#F5F6FB"/>
</svg>
