<svg width="183" height="142" viewBox="0 0 183 142" fill="none" xmlns="http://www.w3.org/2000/svg">
<path d="M41.6532 108C37.6792 108 33.7794 107.14 29.9828 105.421C25.6043 103.438 21.3987 101.003 17.4834 98.1828C17.3122 98.0595 17.1509 97.9287 16.9984 97.7903L12.7866 101.181C12.4945 101.417 12.0856 101.443 11.7655 101.246C11.6197 101.157 8.15646 99.016 5.22441 95.5925C2.28214 92.1575 0.992591 88.7839 0.939248 88.6424C0.822784 88.3335 0.886795 87.9851 1.10505 87.7385L3.69349 84.8104C3.75706 84.7388 3.82907 84.68 3.90641 84.6342C2.58308 82.0577 0.806782 77.2639 0.16623 69.3707C-0.400533 62.381 0.483616 56.6495 2.79378 52.335C2.91736 52.104 3.10006 51.7262 3.29787 51.3181C3.63659 50.6193 3.98643 49.8961 4.2278 49.5013C4.46562 49.1123 4.72433 48.6642 5.01149 48.1675C7.23942 44.311 11.3859 37.1335 20.8599 31.6636C28.8893 27.0283 32.8846 26.5463 36.4092 26.1208C38.506 25.868 40.3161 25.649 42.753 24.5577C48.9531 21.7823 50.1915 19.5112 50.2035 19.4885C50.3218 19.2624 50.5351 19.0897 50.7827 19.0283C51.029 18.966 51.2957 19.0065 51.5055 19.1516C52.155 19.6011 55.3973 21.9581 55.4324 24.236C55.4498 25.3402 55.067 26.0959 54.7874 26.6469C54.5007 27.2125 54.5109 27.2259 54.6318 27.3875C54.7616 27.5601 54.9981 27.6554 55.3733 27.7965C56.2686 28.1334 57.6212 28.6416 57.6839 31.2568C57.7341 33.3397 56.6357 34.5027 55.7418 35.3461C57.5088 36.2282 62.0398 38.6351 65.6337 41.7879C67.9554 43.8245 69.7762 46.2056 70.8955 47.8435C71.7489 49.0932 72.2633 49.9175 72.5571 50.4818C73.7022 49.8609 74.4805 49.5943 75.0855 49.3869C75.7954 49.1439 76.1866 49.0095 76.8009 48.4394C78.8444 46.543 82.1831 48.0335 82.5868 48.313C82.8148 48.4706 82.9628 48.7189 82.9931 48.9935C83.0495 49.5035 82.7584 49.8191 82.2294 50.3919C81.3497 51.3443 79.52 53.3262 78.6412 56.6891C77.854 59.7026 78.0184 63.2048 78.1634 66.294C78.2549 68.2447 78.3412 70.0868 78.1656 71.5431C77.5917 76.3035 76.3973 86.2101 69.0952 94.3535C65.6035 98.2478 61.2214 101.649 56.6886 104.034C56.6095 104.094 56.5215 104.139 56.4286 104.17C55.3102 104.748 54.1842 105.263 53.0609 105.709C49.2091 107.237 45.3978 108 41.6532 108ZM36.7711 105.719C43.4135 106.965 49.8808 105.473 55.5178 102.621C55.9085 101.825 57.0394 99.161 56.9549 95.1328C56.8562 90.3857 56.0343 88.8863 56.0259 88.8721C55.7871 88.4515 55.9227 87.9081 56.3375 87.6597C56.7522 87.4109 57.2847 87.532 57.5417 87.9414C57.6519 88.1172 58.6227 89.8103 58.733 95.0954C58.7872 97.7173 58.3769 99.8135 57.9319 101.289C61.7579 99.0004 65.1158 96.1266 67.7718 93.1652C69.1503 91.6279 70.2998 90.0199 71.2613 88.3932C70.9359 87.597 70.2034 85.2964 70.6012 81.4337C71.0644 76.935 71.2346 74.4818 71.2364 74.4578C71.2698 73.9673 71.7014 73.6019 72.1841 73.6309C72.6744 73.6643 73.0443 74.0893 73.01 74.5798C73.0083 74.6047 72.8362 77.0832 72.3699 81.6166C72.1663 83.5981 72.2886 85.1019 72.4753 86.1376C75.3176 80.3184 76.0092 74.5789 76.4008 71.3303C76.5582 70.0223 76.4755 68.2523 76.3879 66.3786C76.2368 63.1612 76.0657 59.5152 76.9218 56.2396C77.8371 52.7374 79.64 50.5908 80.6811 49.4488C79.853 49.2329 78.6848 49.1186 78.01 49.7457C77.1187 50.5726 76.4435 50.804 75.6616 51.0719C74.9224 51.3247 74.0031 51.6398 72.4033 52.6301C70.9266 53.5443 70.8915 54.7424 70.9564 56.6223C70.9999 57.8658 71.0484 59.2754 70.3229 60.5211C69.0543 62.6997 67.5096 62.199 66.4881 61.8701C65.9351 61.6912 65.4541 61.5354 64.9527 61.652C64.9056 62.0365 65.2341 63.1145 65.4781 63.9156C66.0391 65.7568 66.8068 68.2781 66.3912 70.823C66.1587 72.2445 65.7328 73.1142 65.0505 73.5597C64.2543 74.0804 63.4067 73.8628 62.7261 73.6865C61.8313 73.456 61.657 73.4769 61.4001 73.8503C60.4164 75.2754 60.1417 76.5763 59.7612 78.3766C59.6007 79.1354 59.4184 79.9957 59.1597 80.9633C58.7556 82.4747 57.98 83.5318 56.8535 84.105C55.1422 84.9764 52.6773 84.7365 49.0985 83.3502C46.082 82.1819 43.3362 81.9131 41.5643 81.8939C41.555 81.8939 41.5456 81.8939 41.5363 81.8939C40.7637 81.8939 40.0663 82.2553 39.299 82.8196C34.1666 87.7447 28.5146 90.5237 22.9447 90.776C21.8685 90.8246 20.735 90.7845 19.5873 90.6786C18.336 90.9932 17.5816 91.9617 17.2744 92.887C16.8917 94.0388 17.018 95.6553 18.5218 96.7377C22.342 99.4891 26.4444 101.865 30.7158 103.799C32.0067 104.383 33.2989 104.851 34.5862 105.21C35.1539 104.781 37.7806 102.695 40.2032 99.0965C40.016 98.6719 38.9221 96.1026 38.7896 93.827C38.7238 92.692 38.6856 91.2327 38.8759 90.7249L40.5401 91.3515C40.5401 91.3515 40.5512 91.3315 40.5637 91.2781C40.5588 91.2986 40.453 91.8019 40.565 93.7233C40.6344 94.9178 41.0353 96.2623 41.3709 97.2054C44.0736 92.5149 44.471 90.8437 44.4746 90.8268C44.5817 90.3515 45.0533 90.047 45.529 90.1485C46.0051 90.2504 46.3118 90.7128 46.2149 91.1904C46.1758 91.384 45.7446 93.2319 42.6903 98.4761C40.6188 102.033 38.2109 104.455 36.7711 105.719ZM2.80756 88.4991C3.25964 89.5161 4.47273 91.9799 6.57486 94.434C8.67522 96.8868 11.1276 98.6755 12.1767 99.388L15.5039 96.7092C14.2855 95.7728 12.3301 94.2502 11.0823 93.1763C7.78307 90.3399 5.40667 87.0745 5.30709 86.9365C5.2662 86.88 5.2333 86.8203 5.20708 86.7594C5.10439 86.6232 4.97504 86.4434 4.82524 86.2168L2.80756 88.4991ZM8.72278 88.3162C9.65983 89.3799 10.8743 90.6514 12.2403 91.826C13.076 92.5447 14.2655 93.4918 15.3186 94.3143C15.2803 93.6609 15.3666 92.9885 15.5875 92.324C15.8475 91.5407 16.2658 90.8606 16.8006 90.3118C13.7374 89.7978 10.7938 88.9718 8.72278 88.3162ZM6.66555 85.7353C7.88308 86.1812 13.9352 88.3175 19.5037 88.8792C19.8509 88.8155 20.2123 88.7871 20.5799 88.7933C22.2975 88.8244 23.94 88.7025 25.4572 88.4252C31.0319 87.4051 34.6645 84.3498 36.8346 82.5241C37.2169 82.2019 37.5601 81.9144 37.8655 81.6745C37.9619 81.5988 38.0597 81.5236 38.1584 81.4493C39.6933 79.9655 41.1838 78.2764 42.6107 76.3934C48.2517 68.9488 47.9009 65.3887 47.7325 63.6784L47.7085 63.4296C47.6689 62.9872 47.4208 62.1856 47.1581 61.3378C46.4754 59.1329 45.5405 56.1136 46.4238 53.8856C47.239 51.8294 49.3154 51.6443 51.3228 51.4654C52.7626 51.3372 54.2518 51.2041 55.4124 50.4337C57.8995 48.7821 56.646 44.5326 55.5138 42.2828C55.0661 41.3936 54.5145 40.7247 54.0277 40.135C53.1934 39.1242 52.331 38.0788 52.7257 36.5024C52.9778 35.4952 53.6748 34.8445 54.3482 34.2152C55.2026 33.4167 55.9409 32.7269 55.9067 31.3005C55.8725 29.8865 55.4729 29.7365 54.7483 29.4637C54.2624 29.2812 53.6579 29.0538 53.2107 28.4574C52.4141 27.3964 52.8693 26.4982 53.2014 25.8422C53.4396 25.3722 53.6646 24.928 53.6543 24.2644C53.6419 23.4308 52.3537 22.0796 51.1935 21.1419C50.2902 22.2011 48.1783 24.0797 43.4793 26.1836C40.7966 27.3843 38.7692 27.6291 36.6226 27.8881C33.2665 28.2932 29.4627 28.752 21.7481 33.2058C12.6861 38.4375 8.84547 45.0858 6.55086 49.0589C6.2557 49.5694 5.98899 50.0305 5.74495 50.4306C5.54891 50.7515 5.18796 51.4965 4.89858 52.0947C4.68788 52.5291 4.49318 52.9305 4.3616 53.1767C2.37193 56.8912 1.5269 61.802 1.8434 67.7903C3.17429 63.3036 5.89208 56.6326 11.2717 50.4333C20.2896 40.0406 37.8103 34.3696 38.5518 34.1333C39.0212 33.9855 39.52 34.2437 39.6684 34.7119C39.8173 35.1801 39.5591 35.6808 39.0914 35.8299C38.923 35.8837 22.9963 41.0407 13.9614 50.1516C15.7124 50.7288 19.7784 51.8855 22.6056 51.238C23.7684 50.9723 24.7735 50.7199 25.6599 50.4969C27.854 49.945 29.4392 49.5463 31.3048 49.4737C31.3164 49.4728 31.3288 49.4728 31.3399 49.4728C31.8151 49.4728 32.2094 49.8489 32.2276 50.3282C32.2467 50.8196 31.8649 51.2335 31.3741 51.2522C29.773 51.315 28.3279 51.6621 26.3898 52.1486L28.122 53.8131C28.4763 54.154 28.4879 54.717 28.1483 55.0717C27.8073 55.4264 27.2455 55.438 26.8912 55.098L24.3499 52.6559C23.9253 52.7587 23.4764 52.8656 23.0003 52.9741C19.1321 53.8563 13.6845 51.9639 12.635 51.5766C12.6279 51.5847 12.6208 51.5931 12.6137 51.6011C9.72695 54.928 7.63371 58.4288 6.12501 61.624C8.49519 60.3328 12.3652 58.6665 14.8283 59.8976C16.4641 60.7147 17.7087 62.1852 18.9134 63.6072C20.2296 65.1618 21.4729 66.63 23.1021 67.1819C23.5671 67.3395 23.8164 67.8446 23.6591 68.3106C23.5017 68.7761 22.9981 69.0262 22.5318 68.8682C20.4359 68.1579 18.9725 66.4298 17.5572 64.7585C17.0433 64.1515 16.5419 63.5595 16.0258 63.0321C15.6528 64.1884 15.031 66.3759 15.011 68.1619C14.9825 70.705 16.2507 74.306 16.2632 74.3421C16.4276 74.8054 16.1863 75.3145 15.724 75.4792C15.2617 75.6448 14.7527 75.4027 14.5882 74.9394C14.5313 74.7805 13.2004 71.0054 13.2324 68.1424C13.2604 65.6286 14.2802 62.5964 14.5655 61.7962C14.3922 61.6836 14.2157 61.5817 14.0348 61.4909C11.8157 60.3836 6.72022 63.2248 5.10973 64.3081C5.04883 64.3491 4.98482 64.3816 4.91858 64.4056C2.91069 69.4718 2.42261 73.2285 2.41461 73.2944C2.41327 73.3029 2.41239 73.3109 2.41105 73.3193C3.63704 81.3763 6.08856 84.9804 6.66555 85.7353ZM41.8724 80.1181C43.7936 80.1648 46.6345 80.4866 49.7399 81.6892C52.7302 82.8477 54.8532 83.1259 56.0481 82.517C56.7144 82.1783 57.17 81.5192 57.4425 80.5022C57.6888 79.5809 57.8582 78.7811 58.0213 78.0081C58.4129 76.1566 58.7508 74.5575 59.9372 72.8387C60.9387 71.3869 62.3354 71.7474 63.1693 71.9628C63.5302 72.0554 63.9387 72.1613 64.0788 72.0687C64.1361 72.0313 64.4326 71.7812 64.6366 70.535C64.9856 68.4 64.3157 66.2014 63.7774 64.435C63.2782 62.7958 62.9172 61.6115 63.4098 60.7271C63.5618 60.4548 63.8658 60.0969 64.4539 59.9421C65.4768 59.6728 66.3405 59.9514 67.0348 60.1757C68.007 60.489 68.239 60.5656 68.7876 59.6238C69.2539 58.8227 69.2183 57.7839 69.1801 56.6842C69.1214 54.9916 69.0489 52.9123 71.0235 51.4204C70.3772 50.249 68.027 46.2555 64.4619 43.1271C60.7102 39.8354 55.7298 37.319 54.5212 36.7307C54.4918 36.7974 54.4678 36.8655 54.4505 36.935C54.2882 37.5834 54.5492 37.9706 55.3986 39.0005C55.9183 39.6298 56.5646 40.4136 57.102 41.4808C58.8361 44.927 59.6918 49.7279 56.3957 51.9171C54.859 52.9372 53.0645 53.097 51.4811 53.2385C49.5692 53.409 48.469 53.5536 48.077 54.5426C47.4249 56.1866 48.2525 58.8592 48.8566 60.8108C49.1607 61.7922 49.423 62.64 49.4799 63.2698L49.5021 63.503C49.6932 65.4399 50.0897 69.4691 44.0278 77.4695C43.3242 78.3971 42.6049 79.2805 41.8724 80.1181Z" fill="#DFE2EB"/>
<path d="M183 41.3468C183 45.3208 182.14 49.2206 180.421 53.0172C178.438 57.3957 176.003 61.6013 173.183 65.5166C173.06 65.6878 172.929 65.8491 172.79 66.0016L176.181 70.2134C176.417 70.5055 176.443 70.9144 176.246 71.2345C176.157 71.3803 174.016 74.8435 170.593 77.7756C167.158 80.7179 163.784 82.0074 163.642 82.0607C163.334 82.1772 162.985 82.1132 162.738 81.8949L159.81 79.3065C159.739 79.2429 159.68 79.1709 159.634 79.0936C157.058 80.4169 152.264 82.1932 144.371 82.8338C137.381 83.4005 131.649 82.5164 127.335 80.2062C127.104 80.0826 126.726 79.8999 126.318 79.7021C125.619 79.3634 124.896 79.0136 124.501 78.7722C124.112 78.5344 123.664 78.2757 123.167 77.9885C119.311 75.7606 112.133 71.6141 106.664 62.1401C102.028 54.1107 101.546 50.1154 101.121 46.5908C100.868 44.494 100.649 42.6839 99.5577 40.247C96.7823 34.0469 94.5112 32.8085 94.4885 32.7965C94.2624 32.6782 94.0897 32.4649 94.0283 32.2173C93.966 31.971 94.0065 31.7043 94.1516 31.4945C94.6011 30.845 96.9581 27.6027 99.236 27.5676C100.34 27.5502 101.096 27.933 101.647 28.2126C102.213 28.4993 102.226 28.4891 102.387 28.3682C102.56 28.2384 102.655 28.0019 102.796 27.6267C103.133 26.7314 103.642 25.3788 106.257 25.3161C108.34 25.2659 109.503 26.3643 110.346 27.2582C111.228 25.4912 113.635 20.9602 116.788 17.3663C118.825 15.0446 121.206 13.2238 122.843 12.1045C124.093 11.2511 124.917 10.7367 125.482 10.4429C124.861 9.29784 124.594 8.51948 124.387 7.9145C124.144 7.2046 124.01 6.81342 123.439 6.1991C121.543 4.15564 123.033 0.816855 123.313 0.41323C123.471 0.185195 123.719 0.0371691 123.993 0.00694144C124.504 -0.0495161 124.819 0.241644 125.392 0.770629C126.344 1.65033 128.326 3.47997 131.689 4.35879C134.703 5.14603 138.205 4.98156 141.294 4.83664C143.245 4.74507 145.087 4.65883 146.543 4.83442C151.303 5.40829 161.21 6.60271 169.353 13.9048C173.248 17.3965 176.649 21.7786 179.034 26.3114C179.094 26.3905 179.139 26.4785 179.17 26.5714C179.748 27.6898 180.263 28.8158 180.709 29.9391C182.237 33.7908 183 37.6022 183 41.3468ZM180.719 46.2289C181.965 39.5865 180.473 33.1192 177.621 27.4822C176.825 27.0915 174.161 25.9606 170.133 26.0451C165.386 26.1438 163.886 26.9657 163.872 26.9741C163.451 27.2128 162.908 27.0773 162.66 26.6625C162.411 26.2478 162.532 25.7153 162.941 25.4583C163.117 25.3481 164.81 24.3773 170.095 24.267C172.717 24.2128 174.814 24.6231 176.289 25.068C174 21.2421 171.127 17.8842 168.165 15.2282C166.628 13.8497 165.02 12.7002 163.393 11.7387C162.597 12.0641 160.296 12.7966 156.434 12.3988C151.935 11.9356 149.482 11.7654 149.458 11.7636C148.967 11.7302 148.602 11.2986 148.631 10.8159C148.664 10.3256 149.089 9.95572 149.58 9.98996C149.605 9.99173 152.083 10.1638 156.617 10.6301C158.598 10.8337 160.102 10.7114 161.138 10.5247C155.318 7.68245 149.579 6.99078 146.33 6.59916C145.022 6.4418 143.252 6.52448 141.379 6.61205C138.161 6.76319 134.515 6.93433 131.24 6.07818C127.737 5.16292 125.591 3.35995 124.449 2.31888C124.233 3.14702 124.119 4.31522 124.746 4.99C125.573 5.88126 125.804 6.55649 126.072 7.33839C126.325 8.07763 126.64 8.99689 127.63 10.5967C128.544 12.0734 129.742 12.1085 131.622 12.0436C132.866 12.0001 134.275 11.9516 135.521 12.6771C137.7 13.9457 137.199 15.4904 136.87 16.5119C136.691 17.0649 136.535 17.5459 136.652 18.0473C137.037 18.0944 138.114 17.7659 138.916 17.5219C140.757 16.9609 143.278 16.1932 145.823 16.6088C147.245 16.8413 148.114 17.2672 148.56 17.9495C149.08 18.7456 148.863 19.5933 148.687 20.2739C148.456 21.1687 148.477 21.343 148.85 21.5999C150.275 22.5836 151.576 22.8583 153.377 23.2388C154.135 23.3993 154.996 23.5816 155.963 23.8403C157.475 24.2443 158.532 25.02 159.105 26.1464C159.976 27.8578 159.737 30.3227 158.35 33.9015C157.182 36.918 156.913 39.6638 156.894 41.4357C156.894 41.445 156.894 41.4544 156.894 41.4637C156.894 42.2363 157.255 42.9337 157.82 43.701C162.745 48.8334 165.524 54.4854 165.776 60.0553C165.825 61.1314 165.785 62.265 165.679 63.4127C165.993 64.664 166.962 65.4184 167.887 65.7256C169.039 66.1083 170.655 65.982 171.738 64.4782C174.489 60.658 176.865 56.5556 178.799 52.2842C179.383 50.9933 179.851 49.7011 180.21 48.4138C179.781 47.8461 177.695 45.2194 174.097 42.7968C173.672 42.9839 171.103 44.0779 168.827 44.2104C167.692 44.2762 166.233 44.3144 165.725 44.1241L166.352 42.4599C166.352 42.4599 166.331 42.4488 166.278 42.4363C166.299 42.4412 166.802 42.547 168.723 42.435C169.918 42.3656 171.262 41.9647 172.205 41.6291C167.515 38.9264 165.844 38.529 165.827 38.5254C165.351 38.4183 165.047 37.9467 165.149 37.471C165.25 36.9949 165.713 36.6882 166.19 36.7851C166.384 36.8242 168.232 37.2554 173.476 40.3097C177.033 42.3812 179.455 44.7891 180.719 46.2289ZM163.499 80.1924C164.516 79.7404 166.98 78.5273 169.434 76.4251C171.887 74.3248 173.675 71.8724 174.388 70.8233L171.709 67.4961C170.773 68.7145 169.25 70.6699 168.176 71.9177C165.34 75.2169 162.074 77.5933 161.936 77.6929C161.88 77.7338 161.82 77.7667 161.759 77.7929C161.623 77.8956 161.443 78.025 161.217 78.1748L163.499 80.1924ZM163.316 74.2772C164.38 73.3402 165.651 72.1257 166.826 70.7597C167.545 69.924 168.492 68.7345 169.314 67.6814C168.661 67.7197 167.988 67.6334 167.324 67.4125C166.541 67.1525 165.861 66.7342 165.312 66.1994C164.798 69.2626 163.972 72.2062 163.316 74.2772ZM160.735 76.3345C161.181 75.1169 163.318 69.0648 163.879 63.4963C163.816 63.1491 163.787 62.7877 163.793 62.4201C163.824 60.7025 163.702 59.06 163.425 57.5428C162.405 51.9681 159.35 48.3355 157.524 46.1654C157.202 45.7831 156.914 45.4399 156.674 45.1345C156.599 45.0381 156.524 44.9403 156.449 44.8416C154.965 43.3067 153.276 41.8162 151.393 40.3893C143.949 34.7483 140.389 35.0991 138.678 35.2675L138.43 35.2915C137.987 35.3311 137.186 35.5791 136.338 35.8419C134.133 36.5246 131.114 37.4595 128.886 36.5762C126.829 35.761 126.644 33.6846 126.465 31.6772C126.337 30.2374 126.204 28.7482 125.434 27.5876C123.782 25.1005 119.533 26.354 117.283 27.4862C116.394 27.9339 115.725 28.4855 115.135 28.9723C114.124 29.8066 113.079 30.669 111.502 30.2743C110.495 30.0222 109.844 29.3252 109.215 28.6518C108.417 27.7974 107.727 27.0591 106.3 27.0933C104.886 27.1275 104.736 27.5271 104.464 28.2517C104.281 28.7376 104.054 29.3421 103.457 29.7893C102.396 30.5859 101.498 30.1307 100.842 29.7986C100.372 29.5604 99.928 29.3354 99.2644 29.3457C98.4308 29.3581 97.0796 30.6463 96.1419 31.8065C97.2011 32.7098 99.0797 34.8217 101.184 39.5207C102.384 42.2034 102.629 44.2308 102.888 46.3774C103.293 49.7335 103.752 53.5373 108.206 61.2519C113.437 70.3139 120.086 74.1545 124.059 76.4491C124.569 76.7443 125.031 77.011 125.431 77.2551C125.752 77.4511 126.497 77.812 127.095 78.1014C127.529 78.3121 127.931 78.5068 128.177 78.6384C131.891 80.6281 136.802 81.4731 142.79 81.1566C138.304 79.8257 131.633 77.1079 125.433 71.7283C115.041 62.7104 109.37 45.1897 109.133 44.4482C108.986 43.9788 109.244 43.48 109.712 43.3316C110.18 43.1827 110.681 43.4409 110.83 43.9085C110.884 44.077 116.041 60.0037 125.152 69.0386C125.729 67.2876 126.886 63.2216 126.238 60.3944C125.972 59.2316 125.72 58.2265 125.497 57.3401C124.945 55.146 124.546 53.5608 124.474 51.6952C124.473 51.6836 124.473 51.6712 124.473 51.6601C124.473 51.1849 124.849 50.7906 125.328 50.7724C125.82 50.7533 126.234 51.1351 126.252 51.6258C126.315 53.227 126.662 54.6721 127.149 56.6102L128.813 54.878C129.154 54.5237 129.717 54.5121 130.072 54.8517C130.426 55.1927 130.438 55.7545 130.098 56.1088L127.656 58.6501C127.759 59.0747 127.866 59.5236 127.974 59.9997C128.856 63.8679 126.964 69.3155 126.577 70.365C126.585 70.3721 126.593 70.3792 126.601 70.3863C129.928 73.273 133.429 75.3663 136.624 76.875C135.333 74.5048 133.667 70.6348 134.898 68.1717C135.715 66.5359 137.185 65.2913 138.607 64.0866C140.162 62.7704 141.63 61.5271 142.182 59.8979C142.339 59.4329 142.845 59.1836 143.311 59.3409C143.776 59.4983 144.026 60.0019 143.868 60.4682C143.158 62.5641 141.43 64.0275 139.759 65.4428C139.151 65.9567 138.56 66.4581 138.032 66.9742C139.188 67.3472 141.376 67.969 143.162 67.989C145.705 68.0175 149.306 66.7493 149.342 66.7368C149.805 66.5724 150.315 66.8137 150.479 67.276C150.645 67.7383 150.403 68.2473 149.939 68.4118C149.78 68.4687 146.005 69.7996 143.142 69.7676C140.629 69.7396 137.596 68.7198 136.796 68.4345C136.684 68.6078 136.582 68.7843 136.491 68.9652C135.384 71.1843 138.225 76.2798 139.308 77.8903C139.349 77.9512 139.382 78.0152 139.406 78.0814C144.472 80.0893 148.229 80.5774 148.294 80.5854C148.303 80.5867 148.311 80.5876 148.319 80.5889C156.376 79.363 159.98 76.9114 160.735 76.3345ZM155.118 41.1276C155.165 39.2064 155.487 36.3655 156.689 33.2601C157.848 30.2698 158.126 28.1468 157.517 26.9519C157.178 26.2856 156.519 25.83 155.502 25.5575C154.581 25.3112 153.781 25.1418 153.008 24.9787C151.157 24.5871 149.557 24.2492 147.839 23.0628C146.387 22.0613 146.747 20.6646 146.963 19.8307C147.055 19.4698 147.161 19.0613 147.069 18.9212C147.031 18.8639 146.781 18.5674 145.535 18.3634C143.4 18.0144 141.201 18.6843 139.435 19.2226C137.796 19.7218 136.611 20.0828 135.727 19.5902C135.455 19.4382 135.097 19.1342 134.942 18.5461C134.673 17.5232 134.951 16.6595 135.176 15.9652C135.489 14.993 135.566 14.761 134.624 14.2124C133.823 13.7461 132.784 13.7817 131.684 13.8199C129.992 13.8786 127.912 13.9511 126.42 11.9765C125.249 12.6228 121.255 14.973 118.127 18.5381C114.835 22.2898 112.319 27.2702 111.731 28.4788C111.797 28.5082 111.866 28.5322 111.935 28.5495C112.583 28.7118 112.971 28.4508 114 27.6014C114.63 27.0817 115.414 26.4354 116.481 25.898C119.927 24.1639 124.728 23.3082 126.917 26.6043C127.937 28.141 128.097 29.9355 128.239 31.5189C128.409 33.4308 128.554 34.531 129.543 34.923C131.187 35.5751 133.859 34.7475 135.811 34.1434C136.792 33.8393 137.64 33.577 138.27 33.5201L138.503 33.4979C140.44 33.3068 144.469 32.9103 152.47 38.9722C153.397 39.6758 154.281 40.3951 155.118 41.1276Z" fill="#DFE2EB"/>
<ellipse cx="38.5" cy="135" rx="33.5" ry="7" fill="#F5F6FB"/>
<ellipse cx="149.5" cy="119" rx="33.5" ry="7" fill="#F5F6FB"/>
</svg>
