<svg width="183" height="64" viewBox="0 0 183 64" fill="none" xmlns="http://www.w3.org/2000/svg">
<path fill-rule="evenodd" clip-rule="evenodd" d="M8.68835 26.5354L12.2528 22.6244L19.9263 36.0406H30.2236L18.045 15.941L30.2236 0H19.4807L11.7082 11.3122L8.68835 15.8915V0H0V36.0406H8.68835V26.5354ZM46.3379 33.6395C46.5689 34.6957 46.833 35.496 47.13 36.0406H55.4718V35.6198C54.7457 34.3161 54.3662 32.4349 54.3332 29.9761V18.1193C54.2836 15.2149 53.2688 12.9294 51.2885 11.2627C49.3083 9.59597 46.6102 8.76261 43.1942 8.76261C39.7783 8.76261 36.9647 9.57122 34.7534 11.1884C32.5586 12.8056 31.4612 14.9096 31.4612 17.5005H39.8031C39.8031 15.5532 40.7932 14.5796 42.7734 14.5796C44.9022 14.5796 45.9666 15.809 45.9666 18.2678V19.6788H43.3923C39.2997 19.6788 36.1808 20.4213 34.0356 21.9065C31.8903 23.3917 30.8177 25.5865 30.8177 28.4909C30.8177 30.8012 31.7005 32.7237 33.4663 34.2584C35.232 35.7765 37.3772 36.5356 39.9021 36.5356C42.6579 36.5356 44.8032 35.5703 46.3379 33.6395ZM44.4814 29.9266C43.8048 30.3721 42.9467 30.5949 41.9071 30.5949C41.115 30.5949 40.4631 30.3639 39.9516 29.9018C39.44 29.4232 39.1842 28.8044 39.1842 28.0453C39.1842 25.438 40.6364 24.1343 43.5408 24.1343H45.9666V28.4166C45.6696 28.9777 45.1745 29.481 44.4814 29.9266ZM83.8389 22.8472C83.8389 27.0057 82.8983 30.3309 81.017 32.8227C79.1523 35.298 76.6275 36.5356 73.4426 36.5356C70.9838 36.5356 68.9623 35.6363 67.3781 33.8376V46.3379H59.0363V9.25768H66.8335L67.081 11.733C68.6817 9.75274 70.7857 8.76261 73.3931 8.76261C76.6935 8.76261 79.2596 9.98377 81.0913 12.4261C82.923 14.8519 83.8389 18.1936 83.8389 22.4511V22.8472ZM75.4971 22.3273C75.4971 17.5747 74.1109 15.1984 71.3386 15.1984C69.3583 15.1984 68.0381 15.908 67.3781 17.3272V27.872C68.1041 29.3572 69.4408 30.0998 71.3881 30.0998C74.0449 30.0998 75.4146 27.806 75.4971 23.2185V22.3273ZM96.3392 36.5356C99.3426 36.5356 101.727 35.4053 103.493 33.1445L103.74 36.0406H111.562V9.25768H103.171V28.0453C102.363 29.415 101.001 30.0998 99.0868 30.0998C96.8591 30.0998 95.7452 28.9529 95.7452 26.6591V9.25768H87.4034V26.6096C87.4034 29.811 88.1542 32.2699 89.6559 33.9861C91.1741 35.6858 93.4019 36.5356 96.3392 36.5356ZM130.177 28.5156C130.177 27.806 129.805 27.2367 129.063 26.8077C128.32 26.3786 126.909 25.933 124.83 25.471C122.751 25.0089 121.035 24.4066 119.681 23.664C118.328 22.9049 117.297 21.989 116.587 20.9164C115.878 19.8438 115.523 18.6144 115.523 17.2282C115.523 14.7694 116.538 12.7479 118.568 11.1637C120.272 9.81955 122.419 9.03976 125.007 8.82431V2.74128H128.983V8.90361C131.404 9.19751 133.428 9.95086 135.053 11.1637C137.198 12.7644 138.271 14.8684 138.271 17.4757H129.905C129.905 15.3304 128.774 14.2578 126.513 14.2578C125.639 14.2578 124.904 14.5053 124.31 15.0004C123.716 15.479 123.419 16.0813 123.419 16.8074C123.419 17.55 123.782 18.1523 124.508 18.6144C125.234 19.0764 126.39 19.456 127.974 19.753C129.574 20.05 130.977 20.4048 132.182 20.8174C136.208 22.2036 138.222 24.6871 138.222 28.2681C138.222 30.7104 137.132 32.6989 134.954 34.2336C133.328 35.388 131.338 36.1083 128.983 36.3943V42.5017H125.007V36.4713C123.324 36.326 121.788 35.9349 120.399 35.298C118.601 34.4729 117.198 33.3507 116.191 31.9316C115.185 30.5124 114.681 29.0189 114.681 27.4512H122.479C122.512 28.6889 122.924 29.5965 123.716 30.1741C124.508 30.7352 125.523 31.0157 126.761 31.0157C127.899 31.0157 128.749 30.7847 129.31 30.3226C129.888 29.8605 130.177 29.2582 130.177 28.5156ZM151.861 9.25768V2.59908H143.519V9.25768H140.103V15.0499H143.519V28.3424C143.519 31.0982 144.204 33.1527 145.573 34.5059C146.943 35.8591 149.063 36.5356 151.935 36.5356C153.569 36.5356 155.136 36.2964 156.638 35.8178V29.8523C156.077 29.9513 155.384 30.0008 154.559 30.0008C153.486 30.0008 152.768 29.8028 152.405 29.4067C152.042 29.0107 151.861 28.3093 151.861 27.3027V15.0499H156.267V9.25768H151.861ZM174.658 36.0406C174.361 35.496 174.097 34.6957 173.866 33.6395C172.331 35.5703 170.186 36.5356 167.43 36.5356C164.905 36.5356 162.76 35.7765 160.994 34.2584C159.229 32.7237 158.346 30.8012 158.346 28.4909C158.346 25.5865 159.419 23.3917 161.564 21.9065C163.709 20.4213 166.828 19.6788 170.92 19.6788H173.495V18.2678C173.495 15.809 172.43 14.5796 170.302 14.5796C168.321 14.5796 167.331 15.5532 167.331 17.5005H158.989C158.989 14.9096 160.087 12.8056 162.282 11.1884C164.493 9.57122 167.307 8.76261 170.722 8.76261C174.138 8.76261 176.836 9.59597 178.817 11.2627C180.797 12.9294 181.812 15.2149 181.861 18.1193V29.9761C181.894 32.4349 182.274 34.3161 183 35.6198V36.0406H174.658ZM169.435 30.5949C170.475 30.5949 171.333 30.3721 172.01 29.9266C172.703 29.481 173.198 28.9777 173.495 28.4166V24.1343H171.069C168.165 24.1343 166.712 25.438 166.712 28.0453C166.712 28.8044 166.968 29.4232 167.48 29.9018C167.991 30.3639 168.643 30.5949 169.435 30.5949Z" fill="black"/>
<path d="M16.6177 60.5752C16.6177 60.2155 16.4907 59.9404 16.2368 59.75C15.9829 59.5553 15.5259 59.3522 14.8657 59.1406C14.2056 58.9248 13.6829 58.7132 13.2979 58.5059C12.2484 57.9388 11.7236 57.175 11.7236 56.2144C11.7236 55.715 11.8633 55.2707 12.1426 54.8813C12.4261 54.4878 12.8302 54.181 13.355 53.9609C13.884 53.7409 14.4764 53.6309 15.1323 53.6309C15.7925 53.6309 16.3807 53.7515 16.897 53.9927C17.4132 54.2297 17.8132 54.5661 18.0967 55.002C18.3844 55.4378 18.5283 55.9329 18.5283 56.4873H16.624C16.624 56.0641 16.4907 55.7362 16.2241 55.5034C15.9575 55.2664 15.583 55.1479 15.1006 55.1479C14.6351 55.1479 14.2733 55.2474 14.0151 55.4463C13.757 55.641 13.6279 55.8991 13.6279 56.2207C13.6279 56.5212 13.7782 56.7729 14.0786 56.9761C14.3833 57.1792 14.8298 57.3696 15.418 57.5474C16.5013 57.8732 17.2905 58.2773 17.7856 58.7598C18.2808 59.2422 18.5283 59.8431 18.5283 60.5625C18.5283 61.3623 18.2257 61.9907 17.6206 62.4478C17.0155 62.9006 16.2008 63.127 15.1768 63.127C14.4658 63.127 13.8184 62.9979 13.2344 62.7397C12.6504 62.4774 12.2039 62.1198 11.895 61.667C11.5903 61.2142 11.438 60.6895 11.438 60.0928H13.3486C13.3486 61.1126 13.958 61.6226 15.1768 61.6226C15.6296 61.6226 15.9829 61.5316 16.2368 61.3496C16.4907 61.1634 16.6177 60.9053 16.6177 60.5752ZM24.2615 53.7578L26.6355 60.4609L28.9969 53.7578H31.4979V63H29.5872V60.4736L29.7776 56.1128L27.283 63H25.9754L23.4871 56.1191L23.6775 60.4736V63H21.7732V53.7578H24.2615ZM40.443 61.0957H37.1041L36.4693 63H34.4444L37.8849 53.7578H39.6495L43.109 63H41.0841L40.443 61.0957ZM37.6183 59.5532H39.9288L38.7672 56.0938L37.6183 59.5532ZM49.3437 59.6167H47.8266V63H45.9223V53.7578H49.3563C50.4481 53.7578 51.2903 54.0011 51.8827 54.4878C52.4752 54.9744 52.7714 55.6621 52.7714 56.5508C52.7714 57.1813 52.6339 57.7082 52.3588 58.1313C52.088 58.5503 51.6754 58.8846 51.121 59.1343L53.1205 62.9111V63H51.0766L49.3437 59.6167ZM47.8266 58.0742H49.3627C49.8409 58.0742 50.2112 57.9536 50.4735 57.7124C50.7359 57.467 50.8671 57.1305 50.8671 56.7031C50.8671 56.2673 50.7423 55.9245 50.4926 55.6748C50.2471 55.4251 49.8684 55.3003 49.3563 55.3003H47.8266V58.0742ZM62.8146 55.3003H59.9836V63H58.0793V55.3003H55.2863V53.7578H62.8146V55.3003ZM76.2234 59.2231H72.5672V63H70.6629V53.7578H76.6805V55.3003H72.5672V57.687H76.2234V59.2231ZM81.7599 63H79.8556V53.7578H81.7599V63ZM92.9965 63H91.0922L87.3852 56.9189V63H85.4809V53.7578H87.3852L91.0985 59.8516V53.7578H92.9965V63ZM101.942 61.0957H98.6027L97.968 63H95.9431L99.3835 53.7578H101.148L104.608 63H102.583L101.942 61.0957ZM99.1169 59.5532H101.427L100.266 56.0938L99.1169 59.5532ZM114.937 63H113.032L109.325 56.9189V63H107.421V53.7578H109.325L113.039 59.8516V53.7578H114.937V63ZM125.805 59.9214C125.733 60.9159 125.365 61.6987 124.7 62.27C124.04 62.8413 123.169 63.127 122.085 63.127C120.9 63.127 119.967 62.7292 119.286 61.9336C118.609 61.1338 118.27 60.0378 118.27 58.6455V58.0806C118.27 57.1919 118.427 56.409 118.74 55.7319C119.053 55.0549 119.5 54.5365 120.079 54.1768C120.663 53.8128 121.34 53.6309 122.111 53.6309C123.177 53.6309 124.036 53.9165 124.688 54.4878C125.339 55.0591 125.716 55.861 125.818 56.8936H123.913C123.867 56.2969 123.7 55.8652 123.412 55.5986C123.128 55.3278 122.695 55.1924 122.111 55.1924C121.476 55.1924 121 55.4209 120.682 55.8779C120.369 56.3307 120.208 57.0353 120.2 57.9917V58.6899C120.2 59.6886 120.35 60.4186 120.651 60.8799C120.955 61.3411 121.434 61.5718 122.085 61.5718C122.673 61.5718 123.111 61.4385 123.399 61.1719C123.691 60.901 123.858 60.4842 123.901 59.9214H125.805ZM134.566 58.9946H130.91V61.4702H135.201V63H129.005V53.7578H135.188V55.3003H130.91V57.5029H134.566V58.9946Z" fill="#52555F"/>
</svg>
