<svg aria-hidden="true" style="position: absolute; width: 0; height: 0; overflow: hidden;" version="1.1" xmlns="http://www.w3.org/2000/svg" xmlns:xlink="http://www.w3.org/1999/xlink">
<defs>
<symbol id="icon-alcohol" viewBox="0 0 32 32">
<path d="M8.742 2.7c-0.229 0-0.413 0.213-0.413 0.474v0.201c0 0.262 0.185 0.475 0.413 0.475s0.413-0.213 0.413-0.474v-0.201c0-0.263-0.185-0.475-0.413-0.475zM7.542 4.281h-0.175c-0.227 0-0.413 0.213-0.413 0.474 0 0.263 0.185 0.475 0.413 0.475h0.175c0.228 0 0.413-0.213 0.413-0.475s-0.185-0.475-0.413-0.475zM8.185 3.444l-0.123-0.142c-0.069-0.085-0.174-0.139-0.291-0.139s-0.222 0.054-0.291 0.138l-0.001 0.001c-0.075 0.090-0.121 0.208-0.121 0.336s0.046 0.246 0.122 0.337l-0.001-0.001 0.123 0.142c0.070 0.084 0.174 0.137 0.291 0.139h0c0.106 0 0.211-0.046 0.292-0.139 0.075-0.090 0.121-0.208 0.121-0.336s-0.046-0.245-0.121-0.337l0.001 0.001zM8.185 5.397c-0.069-0.085-0.174-0.139-0.291-0.139s-0.222 0.054-0.291 0.138l-0.001 0.001-0.124 0.142c-0.075 0.090-0.121 0.208-0.121 0.336s0.046 0.245 0.122 0.337l-0.001-0.001c0.070 0.084 0.174 0.138 0.291 0.139h0c0.106 0 0.211-0.047 0.292-0.139l0.123-0.142c0.075-0.090 0.121-0.208 0.121-0.336s-0.046-0.245-0.121-0.337l0.001 0.001z"></path>
<path d="M26.749 3.916h-13.939c-0.157-1.015-0.598-1.946-1.265-2.654-0.766-0.814-1.761-1.262-2.803-1.262-2.279 0-4.134 2.134-4.134 4.756s1.854 4.756 4.134 4.756c0.418 0 0.829-0.073 1.226-0.215 0.622 0.675 1.392 1.18 2.262 1.44 0.562 0.169 0.989 0.702 1.088 1.36l0.525 3.496c0.185 1.235 0.783 2.306 1.682 3.015 0.682 0.537 1.089 1.414 1.089 2.345v7.125c-0.314 0.229-0.516 0.633-0.516 1.078l0.001 0.040c-1.031 0.243-1.88 0.466-2.525 0.665-0.439 0.135-0.77 0.254-1.013 0.363-0.226 0.103-0.646 0.293-0.646 0.736 0 0.594 0.671 0.696 1.211 0.778 0.464 0.070 1.107 0.129 1.91 0.174 1.357 0.077 2.733 0.089 2.746 0.089h0.006c0.014 0 1.389-0.013 2.746-0.089 0.803-0.045 1.446-0.103 1.91-0.174 0.54-0.082 1.212-0.183 1.212-0.778 0-0.47-0.377-0.713-1.754-1.129-0.834-0.251-1.874-0.506-2.62-0.68 0-0.003 0-0.008 0-0.012 0-0.339-0.123-0.649-0.327-0.889l0.002 0.002v-7.301c0-0.93 0.407-1.807 1.089-2.345 0.899-0.709 1.497-1.78 1.682-3.015l0.525-3.496c0.098-0.658 0.526-1.191 1.087-1.36 1.885-0.564 3.303-2.274 3.751-4.381l0.005-0.024c0.095-0.453 0.146-0.924 0.146-1.406v-0.443c0-0.313-0.221-0.567-0.493-0.567zM8.743 8.562c-1.824 0-3.309-1.707-3.309-3.806s1.485-3.806 3.309-3.806c0.834 0 1.63 0.358 2.243 1.009 0.497 0.529 0.837 1.21 0.983 1.957h-0.423c-0.326-1.447-1.473-2.494-2.803-2.494-1.598 0-2.898 1.496-2.898 3.334s1.3 3.334 2.897 3.334c0.119 0 0.238-0.010 0.357-0.026 0.079 0.149 0.164 0.293 0.254 0.433-0.2 0.043-0.405 0.065-0.611 0.065zM10.006 3.302c-0.069-0.085-0.174-0.139-0.291-0.139s-0.222 0.054-0.291 0.138l-0.001 0.001-0.123 0.142c-0.075 0.090-0.121 0.208-0.121 0.336 0 0.048 0.007 0.095 0.019 0.14l-0.001-0.004h-0.374c-0.271 0-0.493 0.254-0.493 0.567v0.443c0 0.482 0.051 0.952 0.146 1.406l0.006 0.026c0.057 0.267 0.129 0.529 0.216 0.781-1.122-0.028-2.027-1.086-2.027-2.383-0.001-1.315 0.93-2.385 2.073-2.385 0.877 0 1.642 0.635 1.939 1.545h-0.634c0.050-0.079 0.079-0.175 0.079-0.278 0-0.128-0.045-0.245-0.121-0.337l0.001 0.001zM19.059 30.068c1.45 0.336 2.361 0.59 2.931 0.774-1.043 0.118-2.715 0.195-4.205 0.208-1.49-0.013-3.162-0.090-4.205-0.208 0.545-0.176 1.402-0.417 2.745-0.731 0.371-0.086 0.629-0.487 0.598-0.93-0-0.006-0.001-0.013-0.001-0.021 0-0.002 0-0.004 0-0.005v0c0-0.147 0.086-0.277 0.21-0.315 0.181-0.055 0.306-0.243 0.306-0.459v-7.43c0-0.625-0.137-1.231-0.388-1.77 0.231 0.017 0.482 0.026 0.735 0.026 0.251 0 0.503-0.009 0.734-0.026-0.245 0.517-0.388 1.124-0.388 1.764 0 0.002 0 0.005 0 0.007v-0 7.526c0 0.162 0.073 0.314 0.193 0.401 0.082 0.063 0.134 0.16 0.134 0.27 0 0.010-0 0.019-0.001 0.029l0-0.001c-0.024 0.423 0.234 0.806 0.602 0.891zM26.416 4.926c0 0.286-0.021 0.566-0.061 0.84h-12.422c-0.227 0-0.413 0.213-0.413 0.475s0.185 0.474 0.413 0.474h12.198c-0.494 1.499-1.591 2.681-2.999 3.102-0.875 0.262-1.539 1.093-1.693 2.118l-0.525 3.495c-0.147 0.981-0.621 1.83-1.335 2.393-0.111 0.087-0.44 0.291-0.499 0.322-0.327 0.148-2.261 0.148-2.59 0-0.060-0.030-0.389-0.234-0.5-0.322-0.714-0.563-1.188-1.413-1.335-2.393l-0.525-3.495c-0.154-1.025-0.818-1.855-1.693-2.118-0.797-0.238-1.494-0.72-2.038-1.365-0.412-0.49-0.739-1.068-0.949-1.7l-0.011-0.037h2.574c0.227 0 0.413-0.212 0.413-0.474s-0.185-0.475-0.413-0.475h-2.798c-0.039-0.252-0.061-0.542-0.061-0.837 0-0.001 0-0.002 0-0.003v0-0.061h17.261v0.061z"></path>
</symbol>
<symbol id="icon-communal" viewBox="0 0 32 32">
<path d="M30.679 0h-29.358c-0.451 0-0.819 0.369-0.819 0.819s0.369 0.819 0.819 0.819h1.768v29.521c0 0.301 0.164 0.581 0.43 0.724s0.587 0.13 0.84-0.041l3.557-2.369 3.57 2.376c0.127 0.087 0.285 0.138 0.454 0.138s0.327-0.052 0.457-0.14l-0.003 0.002 3.557-2.369 3.571 2.376c0.127 0.086 0.285 0.138 0.454 0.138s0.326-0.052 0.457-0.14l-0.003 0.002 3.557-2.369 3.571 2.376c0.137 0.089 0.294 0.137 0.45 0.137 0.13 0 0.266-0.034 0.389-0.095 0.266-0.143 0.43-0.423 0.43-0.724l-0.014-29.522h1.864c0.451 0 0.819-0.369 0.819-0.819s-0.369-0.84-0.819-0.84zM27.197 29.631l-2.751-1.83c-0.128-0.087-0.285-0.138-0.454-0.138s-0.327 0.052-0.457 0.14l0.003-0.002-3.557 2.376-3.571-2.376c-0.127-0.086-0.285-0.138-0.454-0.138s-0.326 0.052-0.457 0.14l0.003-0.002-3.557 2.369-3.571-2.369c-0.127-0.087-0.285-0.138-0.454-0.138s-0.327 0.052-0.457 0.14l0.003-0.002-2.738 1.823v-27.992h22.462l0.007 27.999z"></path>
<path d="M8.497 13.081h8.582c0.45 0 0.819-0.369 0.819-0.819s-0.369-0.819-0.819-0.819h-8.582c-0.45 0-0.819 0.369-0.819 0.819 0 0.001 0 0.001 0 0.002 0 0.451 0.366 0.817 0.817 0.817 0.001 0 0.002 0 0.002 0h-0zM8.497 15.929h6.431c0.451 0 0.819-0.369 0.819-0.819s-0.369-0.819-0.819-0.819h-6.431c-0.45 0-0.819 0.369-0.819 0.819 0 0.001 0 0.001 0 0.002 0 0.451 0.366 0.817 0.817 0.817 0.001 0 0.002 0 0.002 0h-0zM21.366 13.081h2.144c0.45 0 0.819-0.369 0.819-0.819s-0.369-0.819-0.819-0.819h-2.145c-0.45 0-0.819 0.369-0.819 0.819 0 0.001 0 0.001 0 0.002 0 0.451 0.366 0.817 0.817 0.817 0.001 0 0.002 0 0.002 0h-0zM21.366 15.929h2.144c0.45 0 0.819-0.369 0.819-0.819s-0.369-0.819-0.819-0.819h-2.145c-0.45 0-0.819 0.369-0.819 0.819 0 0.001 0 0.001 0 0.002 0 0.451 0.366 0.817 0.817 0.817 0.001 0 0.002 0 0.002 0h-0zM8.497 6.506h8.582c0.45 0 0.819-0.369 0.819-0.819s-0.369-0.819-0.819-0.819h-8.582c-0.45 0-0.819 0.369-0.819 0.819 0 0.001 0 0.001 0 0.002 0 0.451 0.366 0.817 0.817 0.817 0.001 0 0.002 0 0.002 0h-0zM8.497 9.347h6.431c0.451 0 0.819-0.369 0.819-0.819s-0.369-0.819-0.819-0.819h-6.431c-0.45 0-0.819 0.369-0.819 0.819 0 0.001 0 0.001 0 0.002 0 0.451 0.366 0.817 0.817 0.817 0.001 0 0.002 0 0.002 0h-0zM21.366 6.506h2.144c0.45 0 0.819-0.369 0.819-0.819s-0.369-0.819-0.819-0.819h-2.145c-0.45 0-0.819 0.369-0.819 0.819 0 0.001 0 0.001 0 0.002 0 0.451 0.366 0.817 0.817 0.817 0.001 0 0.002 0 0.002 0h-0zM21.366 9.347h2.144c0.45 0 0.819-0.369 0.819-0.819s-0.369-0.819-0.819-0.819h-2.145c-0.45 0-0.819 0.369-0.819 0.819 0 0.001 0 0.001 0 0.002 0 0.451 0.366 0.817 0.817 0.817 0.001 0 0.002 0 0.002 0h-0zM8.497 19.738h8.582c0.45 0 0.819-0.369 0.819-0.819s-0.369-0.819-0.819-0.819h-8.582c-0.45 0-0.819 0.369-0.819 0.819 0 0 0 0.001 0 0.002 0 0.451 0.366 0.817 0.817 0.817 0.001 0 0.002 0 0.002 0h-0zM8.497 22.578h6.431c0.451 0 0.819-0.369 0.819-0.819s-0.369-0.819-0.819-0.819h-6.431c-0.45 0-0.819 0.369-0.819 0.819 0 0.001 0 0.001 0 0.002 0 0.451 0.366 0.817 0.817 0.817 0.001 0 0.002 0 0.002 0h-0zM21.366 19.738h2.144c0.45 0 0.819-0.369 0.819-0.819s-0.369-0.819-0.819-0.819h-2.145c-0.45 0-0.819 0.369-0.819 0.819 0 0 0 0.001 0 0.002 0 0.451 0.366 0.817 0.817 0.817 0.001 0 0.002 0 0.002 0h-0zM21.366 22.578h2.144c0.45 0 0.819-0.369 0.819-0.819s-0.369-0.819-0.819-0.819h-2.145c-0.45 0-0.819 0.369-0.819 0.819 0 0.001 0 0.001 0 0.002 0 0.451 0.366 0.817 0.817 0.817 0.001 0 0.002 0 0.002 0h-0z"></path>
</symbol>
<symbol id="icon-education" viewBox="0 0 32 32">
<path d="M31.379 6.431h-2.109v-0.72c0-0.007 0-0.016 0-0.024 0-0.281-0.187-0.518-0.443-0.595l-0.004-0.001c-1.329-0.363-2.855-0.571-4.43-0.571-0.015 0-0.030 0-0.044 0h0.002c-2.481 0-5.862 0.558-8.361 3.102-2.481-2.568-5.887-3.102-8.362-3.102-0.013-0-0.027-0-0.042-0-1.575 0-3.101 0.208-4.552 0.599l0.122-0.028c-0.274 0.080-0.458 0.335-0.446 0.62v0.714h-2.090c-0.342 0.001-0.62 0.278-0.62 0.621v19.812c0.001 0.342 0.278 0.619 0.621 0.619 0.111 0 0.216-0.029 0.306-0.081l-0.003 0.002c0.062-0.031 6.265-3.424 14.924-1.241h0.149c0.049 0.006 0.099 0.006 0.149 0 8.684-2.202 14.887 1.185 14.924 1.24 0.089 0.052 0.196 0.083 0.31 0.083 0.341 0 0.618-0.276 0.621-0.616v-19.812c0-0.343-0.278-0.62-0.621-0.62zM1.241 25.87v-18.199h1.482v15.557c-0 0.002-0 0.005-0 0.007 0 0.343 0.278 0.621 0.621 0.621 0.033 0 0.065-0.003 0.097-0.008l-0.003 0c1.157-0.186 2.499-0.299 3.865-0.31l0.012-0c1.798-0.031 3.589 0.239 5.297 0.8-0.822-0.105-1.774-0.165-2.739-0.165-3.112 0-6.079 0.623-8.782 1.752l0.151-0.056zM7.313 22.304c-1.192 0.003-2.363 0.082-3.512 0.232l0.138-0.015v-16.32c1.104-0.257 2.373-0.406 3.676-0.409h0.002c2.32 0 5.52 0.534 7.741 3.040l0.019 15.451c-1.29-0.844-3.809-1.979-8.063-1.979zM16.617 8.831c2.221-2.481 5.421-3.039 7.741-3.039 1.237 0.004 2.47 0.141 3.678 0.41v16.319c-1.003-0.136-2.167-0.217-3.349-0.223l-0.007-0c-4.23 0-6.754 1.135-8.063 1.978v-15.445zM30.753 25.871c-2.555-1.075-5.524-1.7-8.639-1.7-0.971 0-1.928 0.061-2.867 0.178l0.112-0.011c1.5-0.509 3.228-0.803 5.025-0.803 0.104 0 0.209 0.001 0.313 0.003l-0.016-0c1.306 0.007 2.61 0.109 3.902 0.304 0.028 0.004 0.060 0.007 0.093 0.007 0.343 0 0.621-0.278 0.621-0.621 0-0.002 0-0.004-0-0.007v0-15.551h1.483l-0.025 18.199z"></path>
</symbol>
<symbol id="icon-entertainment" viewBox="0 0 32 32">
<path d="M29.881 15.729l-1.25-1.263v-12.013l1.050-1.061c0.095-0.097 0.154-0.23 0.154-0.376s-0.059-0.279-0.154-0.376l0 0c-0.095-0.096-0.227-0.156-0.372-0.156s-0.278 0.060-0.372 0.156l-0 0-1.050 1.060h-11.892l-1.249-1.264c-0.095-0.096-0.227-0.156-0.373-0.156s-0.278 0.060-0.373 0.156l-0 0c-0.095 0.097-0.154 0.23-0.154 0.377s0.059 0.28 0.154 0.377l-0-0 1.196 1.209-3.71 15.884c-0.205 0.257-0.329 0.587-0.329 0.946 0 0.156 0.023 0.306 0.067 0.447l-0.003-0.011c0.16 0.531 0.591 0.932 1.128 1.046l0.010 0.002 2.366 0.485c0.457 0.096 0.832 0.386 1.042 0.778l0.004 0.008c0.217 0.408 0.242 0.887 0.070 1.315-0.23 0.571-0.78 0.968-1.422 0.968-0.112 0-0.222-0.012-0.328-0.035l0.010 0.002-8.865-1.898c-1.334-0.286-2.68 0.48-3.13 1.781-0.097 0.271-0.153 0.583-0.153 0.908 0 0.503 0.134 0.976 0.369 1.382l-0.007-0.013c0.39 0.68 1.047 1.169 1.825 1.326l0.017 0.003 0.037 0.007c0.712 0.142 1.297 0.59 1.621 1.198l0.006 0.013c0.176 0.325 0.279 0.711 0.279 1.121 0 0.332-0.068 0.648-0.19 0.935l0.006-0.016c-0.026 0.061-0.041 0.132-0.041 0.206 0 0.219 0.132 0.407 0.32 0.49l0.003 0.001c0.060 0.026 0.13 0.041 0.203 0.041 0.218 0 0.406-0.133 0.486-0.322l0.001-0.003c0.169-0.393 0.267-0.851 0.267-1.331 0-0.594-0.15-1.153-0.414-1.642l0.009 0.018c-0.479-0.899-1.326-1.549-2.335-1.751l-0.022-0.004-0.037-0.007c-0.487-0.098-0.89-0.398-1.124-0.806l-0.004-0.008c-0.139-0.241-0.222-0.53-0.222-0.838 0-0.199 0.034-0.39 0.097-0.568l-0.004 0.012c0.232-0.661 0.85-1.126 1.577-1.126 0.12 0 0.238 0.013 0.351 0.037l-0.011-0.002 8.865 1.898c0.161 0.036 0.346 0.056 0.535 0.056 1.084 0 2.011-0.668 2.393-1.615l0.006-0.017c0.121-0.291 0.191-0.629 0.191-0.983 0-0.452-0.114-0.878-0.315-1.25l0.007 0.014c-0.361-0.675-0.994-1.164-1.749-1.323l-0.017-0.003-2.366-0.485c-0.163-0.033-0.292-0.153-0.337-0.308l-0.001-0.003c-0.013-0.039-0.020-0.085-0.020-0.132 0-0.079 0.020-0.153 0.056-0.218l-0.001 0.002 15.674-3.737 1.196 1.209c0.095 0.096 0.227 0.156 0.373 0.156s0.278-0.060 0.373-0.156l0-0c0.095-0.097 0.154-0.23 0.154-0.377s-0.059-0.28-0.154-0.377l0 0zM26.832 2.764l-4.891 4.941-4.892-4.941h9.782zM16.072 3.284l5.123 5.176-8.287 8.373 3.165-13.548zM13.653 17.585l8.287-8.372 5.122 5.175-13.41 3.197zM27.577 13.401l-4.892-4.941 4.892-4.941v9.883z"></path>
</symbol>
<symbol id="icon-health" viewBox="0 0 32 32">
<path d="M30.119 17.829l-0.509-8.305c-0.033-0.538-0.251-1.029-0.615-1.383-0.363-0.353-0.829-0.526-1.309-0.487-0.944 0.077-1.676 0.967-1.666 2.027l0.060 6.77-2.619 3.757c-0.418 0.6-1.111 0.84-1.741 0.659l2.849-4.144c0.5-0.727 0.417-1.781-0.189-2.399-0.323-0.33-0.742-0.493-1.179-0.458s-0.831 0.261-1.11 0.638l-4.305 5.806c-0.71 0.957-1.095 2.17-1.084 3.414l0.067 7.71c0.003 0.307 0.226 0.555 0.5 0.555l7.167 0.011c0.141 0 0.274-0.066 0.369-0.182s0.142-0.271 0.13-0.427l-0.293-3.774 4.758-7.082c0.521-0.776 0.776-1.737 0.717-2.706zM28.602 19.861l-4.873 7.254c-0.074 0.111-0.11 0.248-0.099 0.386l0.262 3.378-6.125-0.009-0.062-7.155c-0.009-0.979 0.294-1.934 0.853-2.687l4.304-5.806c0.094-0.131 0.24-0.22 0.408-0.235l0.002-0c0.012-0.001 0.026-0.002 0.040-0.002 0.156 0 0.296 0.065 0.395 0.17l0 0c0.223 0.228 0.254 0.617 0.070 0.885l-3.234 4.703c-0.065 0.096-0.104 0.214-0.104 0.341 0 0.033 0.003 0.065 0.007 0.096l-0-0.003c0.023 0.154 0.102 0.29 0.217 0.375 1.157 0.859 2.733 0.573 3.588-0.653l2.726-3.911c0.067-0.096 0.106-0.215 0.106-0.343 0-0.003-0-0.006-0-0.008v0l-0.062-6.967c-0.004-0.469 0.32-0.863 0.738-0.897 0.017-0.001 0.037-0.002 0.056-0.002 0.204 0 0.389 0.083 0.523 0.218l0 0c0.161 0.157 0.258 0.374 0.273 0.612l0.509 8.305c0.043 0.701-0.141 1.394-0.518 1.955zM9.785 14.503c-0.28-0.377-0.674-0.603-1.11-0.638s-0.855 0.129-1.179 0.459c-0.606 0.618-0.689 1.671-0.189 2.399l2.849 4.144c-0.629 0.181-1.323-0.060-1.741-0.659l-2.619-3.757 0.060-6.77c0.009-1.060-0.723-1.951-1.666-2.027-0.48-0.039-0.945 0.134-1.309 0.487s-0.582 0.845-0.615 1.383l-0.508 8.305c-0.059 0.969 0.195 1.93 0.717 2.706l4.758 7.082-0.293 3.774c-0.012 0.157 0.035 0.312 0.13 0.427s0.229 0.182 0.369 0.182h0.001l7.167-0.011c0.274 0 0.497-0.247 0.5-0.555l0.067-7.71c0.011-1.245-0.374-2.457-1.084-3.415l-4.304-5.806zM14.11 30.868l-6.125 0.010 0.262-3.378c0.001-0.015 0.002-0.032 0.002-0.050 0-0.125-0.038-0.241-0.102-0.338l0.001 0.002-4.873-7.254c-0.377-0.561-0.56-1.255-0.518-1.955l0.509-8.305c0.015-0.238 0.111-0.455 0.273-0.612 0.134-0.135 0.32-0.218 0.526-0.218 0.019 0 0.037 0.001 0.056 0.002l-0.002-0c0.418 0.034 0.742 0.429 0.738 0.898l-0.062 6.967c-0.001 0.127 0.037 0.25 0.106 0.351l2.726 3.911c0.855 1.226 2.43 1.513 3.587 0.653 0.116-0.090 0.196-0.222 0.217-0.372l0-0.003c0.004-0.028 0.007-0.060 0.007-0.093 0-0.127-0.039-0.246-0.106-0.344l0.001 0.002-3.233-4.703c-0.185-0.268-0.154-0.657 0.070-0.885 0.099-0.105 0.24-0.171 0.396-0.171 0.014 0 0.028 0.001 0.041 0.002l-0.002-0c0.17 0.015 0.316 0.104 0.409 0.234l0.001 0.002 4.304 5.806c0.559 0.754 0.862 1.708 0.853 2.687l-0.062 7.155zM25.747 6.31c0-1.686-0.586-3.27-1.65-4.462-1.064-1.191-2.479-1.848-3.984-1.848s-2.92 0.657-3.984 1.848l-0.19 0.214-0.19-0.214c-1.065-1.191-2.48-1.848-3.984-1.848-1.505 0-2.92 0.657-3.984 1.848-2.197 2.461-2.197 6.464 0 8.924l7.804 8.741c0.086 0.1 0.213 0.163 0.354 0.164h0c0.141-0.001 0.268-0.064 0.354-0.163l0-0.001 7.804-8.742c1.064-1.191 1.65-2.776 1.65-4.462zM15.939 18.323l-7.45-8.345c-1.806-2.023-1.806-5.314 0-7.337 0.875-0.981 2.038-1.52 3.276-1.52s2.401 0.539 3.275 1.52l0.545 0.609c0.086 0.1 0.213 0.163 0.354 0.165h0c0.141-0.002 0.268-0.065 0.354-0.164l0-0.001 0.544-0.61c0.875-0.98 2.039-1.52 3.276-1.52s2.401 0.54 3.276 1.52 1.357 2.283 1.357 3.669c0 1.386-0.482 2.69-1.357 3.67l-7.45 8.344z"></path>
</symbol>
<symbol id="icon-housing" viewBox="0 0 32 32">
<path d="M30.414 11.952h-0.636v-2.363c-0.002-1.398-1.135-2.532-2.533-2.533h-9.181c-0.849 0-1.6 0.419-2.059 1.060l-0.005 0.008c-0.464-0.649-1.216-1.067-2.065-1.067h-5.767c-0.259 0-0.469 0.21-0.469 0.469s0.21 0.469 0.469 0.469v0h5.767c0.881 0.001 1.595 0.715 1.596 1.596v4.688c-0.010-0.010-0.021-0.018-0.030-0.027-0.542-0.503-1.268-0.813-2.068-0.817h-7.809c-0.050-0.644-0.473-1.178-1.052-1.389l-0.011-0.004c-0.154-0.056-0.331-0.088-0.516-0.088-0.001 0-0.003 0-0.004 0h-0.881v-2.363c0.001-0.881 0.715-1.595 1.595-1.596h1.538c0.259 0 0.469-0.21 0.469-0.469s-0.21-0.469-0.469-0.469v0h-1.539c-1.398 0.002-2.532 1.135-2.533 2.533v2.363h-0.635c-0.875 0.001-1.584 0.71-1.586 1.586v4.894c0.002 1.823 1.48 3.301 3.303 3.303h0.236l-0.514 1.382c-0.323 0.871 0.343 1.827 1.27 1.827h0.754c0.422 0 0.826-0.201 1.081-0.537l2.021-2.672h15.699l2.021 2.671c0.254 0.337 0.658 0.538 1.081 0.538h0.754c0.929 0 1.594-0.957 1.27-1.827l-0.514-1.382h0.236c1.823-0.002 3.301-1.48 3.303-3.303v-4.894c-0.001-0.875-0.71-1.584-1.586-1.586h-0zM16.469 9.589c0.001-0.881 0.715-1.595 1.596-1.596h9.181c0.881 0.001 1.594 0.715 1.595 1.596v2.363h-0.882c-0.623 0-1.221 0.4-1.463 0.974-0.068 0.161-0.109 0.333-0.12 0.507h-7.807c-0.815 0.005-1.553 0.325-2.101 0.845l0.001-0.001v-4.688zM5.629 14.37h7.804c1.159 0.001 2.098 0.94 2.099 2.099v0.666h-9.904v-2.766zM5.383 23.841c-0.077 0.101-0.198 0.165-0.333 0.166h-0.754c-0.23-0.003-0.416-0.19-0.416-0.421 0-0.051 0.009-0.1 0.026-0.145l-0.001 0.003 0.635-1.709h2.437l-1.593 2.106zM27.706 24.006h-0.754c-0.136-0-0.256-0.065-0.332-0.165l-0.001-0.001-1.593-2.106h2.437l0.635 1.709c0.015 0.042 0.024 0.091 0.024 0.141 0 0.231-0.185 0.418-0.415 0.422h-0zM28.698 20.797h-25.395c-1.306-0.001-2.364-1.059-2.366-2.365v-4.894c0-0.358 0.291-0.649 0.649-0.649h2.456c0.358 0 0.649 0.291 0.649 0.649v4.067c0 0.259 0.21 0.469 0.469 0.469h17.217c0.259 0 0.469-0.21 0.469-0.469s-0.21-0.469-0.469-0.469v0h-5.907v-0.667c0.001-1.159 0.94-2.098 2.099-2.099h7.805v2.766h-2.121c-0.259 0-0.469 0.21-0.469 0.469s0.21 0.469 0.469 0.469v0h2.59c0.259 0 0.469-0.21 0.469-0.469v0-4.067c0-0.358 0.291-0.649 0.649-0.649h2.455c0.358 0 0.649 0.291 0.649 0.649v4.894c-0.001 1.306-1.059 2.364-2.365 2.366h-0z"></path>
</symbol>
<symbol id="icon-other" viewBox="0 0 32 32">
<path d="M31.996 22.334c-0.956-7.667-8.11-8.803-10.129-8.971v-6.963c0-0.048-0.067-4.8-5.867-4.8s-5.867 4.752-5.867 4.8v6.963c-2.019 0.167-9.17 1.303-10.129 8.97 0 0.011-0.004 0.053-0.004 0.066v2.133c0 0.295 0.239 0.534 0.533 0.534h2.667v1.066h-1.6c-0.294 0-0.533 0.239-0.533 0.533 0 0 0 0 0 0.001v-0c0 1.291 0.78 3.733 3.733 3.733s3.733-2.442 3.733-3.734c0-0.294-0.239-0.533-0.533-0.533v0h-1.6v-1.066h8v1.066h-1.6c-0.294 0-0.533 0.239-0.533 0.533 0 0 0 0 0 0.001v-0c0 1.291 0.78 3.733 3.733 3.733s3.733-2.442 3.733-3.734c0-0.294-0.239-0.533-0.533-0.533v0h-1.6v-1.066h8v1.066h-1.6c-0.294 0-0.533 0.239-0.533 0.533 0 0 0 0 0 0.001v-0c0 1.291 0.78 3.733 3.733 3.733s3.733-2.442 3.733-3.734c0-0.294-0.239-0.533-0.533-0.533v0h-1.6v-1.066h2.667c0.294 0 0.533-0.239 0.533-0.533 0-0 0-0 0-0.001v0-2.133c0-0.013 0-0.054-0.004-0.066zM11.2 6.4c0-0.153 0.053-3.734 4.8-3.734 4.714 0 4.8 3.583 4.8 3.734v6.933h-1.067v-3.2h-1.066v3.2h-7.467v-6.933zM6.187 15.434c1.315-0.593 2.846-0.967 4.455-1.033l0.025-0.001h10.666c1.634 0.067 3.165 0.441 4.558 1.066l-0.078-0.031c2.656 1.12 4.581 3.508 5.027 6.385l0.006 0.047h-29.692c0.452-2.924 2.377-5.312 4.979-6.412l0.054-0.020zM4.8 29.333c-0.055 0.004-0.119 0.007-0.184 0.007-1.243 0-2.27-0.927-2.426-2.128l-0.001-0.012h5.219c-0.164 1.213-1.193 2.139-2.438 2.139-0.060 0-0.119-0.002-0.177-0.006l0.008 0zM5.333 26.133h-1.066v-1.066h1.066v1.066zM16 29.333c-0.055 0.004-0.119 0.007-0.184 0.007-1.243 0-2.27-0.927-2.426-2.128l-0.001-0.012h5.219c-0.164 1.213-1.193 2.139-2.438 2.139-0.060 0-0.119-0.002-0.177-0.006l0.008 0zM16.533 26.133h-1.066v-1.066h1.066v1.066zM27.2 29.333c-0.056 0.005-0.121 0.007-0.187 0.007-1.243 0-2.27-0.927-2.425-2.128l-0.001-0.012h5.221c-0.164 1.213-1.193 2.139-2.438 2.139-0.060 0-0.119-0.002-0.177-0.006l0.008 0zM27.733 26.133h-1.066v-1.066h1.066v1.066zM30.933 24h-29.866v-1.067h29.866v1.067z"></path>
<path d="M16 15.467c-1.473 0-2.667 1.194-2.667 2.667s1.194 2.667 2.667 2.667v0c1.473 0 2.667-1.194 2.667-2.667s-1.194-2.667-2.667-2.667v0zM16 19.734c-0.884 0-1.6-0.716-1.6-1.6s0.716-1.6 1.6-1.6v0c0.884 0 1.6 0.716 1.6 1.6s-0.716 1.6-1.6 1.6v0z"></path>
<path d="M17.067 18.133c0 0.589-0.478 1.067-1.067 1.067s-1.067-0.478-1.067-1.067v0c0-0.589 0.478-1.067 1.067-1.067s1.067 0.478 1.067 1.067v0zM18.667 8h1.066v1.067h-1.066v-1.067zM18.667 6.4v0.533h1.066v-0.533c0-0.273-0.107-2.667-3.733-2.667v1.067c2.474 0 2.667 1.226 2.667 1.6zM11.2 17.6h1.067v1.066h-1.067v-1.066zM9.067 17.6h1.066v1.066h-1.066v-1.066zM19.733 17.6h1.067v1.066h-1.067v-1.066zM21.867 17.6h1.066v1.066h-1.066v-1.066z"></path>
</symbol>
<symbol id="icon-products" viewBox="0 0 32 32">
<path fill="#ff751d" style="fill: var(--color1, #ff751d)" d="M31.965 25.027l-0.121-0.728c-0.076-0.465-0.44-0.803-0.862-0.803-0.053 0-0.107 0.006-0.159 0.016l-2.452 0.505 1.11-0.832c0.291-0.218 0.438-0.607 0.374-0.994-0.019-0.114-0.053-0.215-0.101-0.309l0.003 0.006-0.336-0.666c-0.109-0.222-0.3-0.389-0.532-0.465l-0.006-0.002c-0.067-0.021-0.145-0.033-0.225-0.033-0.041 0-0.081 0.003-0.12 0.009l0.004-0.001c0.123-0.764 0.188-1.545 0.188-2.34 0-0.353-0.189-0.656-0.46-0.79 0.176-0.458 0.278-0.988 0.278-1.542 0-0.525-0.092-1.028-0.26-1.495l0.010 0.031c-0.029-0.082-0.071-0.153-0.125-0.214l0.001 0.001c-0.052-0.058-0.115-0.105-0.186-0.138l-0.003-0.001c-0.385-0.178-0.835-0.281-1.31-0.281-0.060 0-0.119 0.002-0.177 0.005l0.008-0c-0.064-1.446-1.132-2.6-2.436-2.6-0.172 0-0.34 0.021-0.501 0.058 0.034-0.212 0.053-0.457 0.053-0.706 0-0.564-0.098-1.105-0.279-1.607l0.010 0.033c-0.030-0.085-0.073-0.158-0.129-0.22l0.001 0.001c-0.052-0.059-0.116-0.107-0.189-0.141l-0.003-0.001c-0.414-0.191-0.898-0.303-1.408-0.303h-0c-0.762 0.002-1.465 0.248-2.038 0.664l0.010-0.007c-0.233-0.756-0.607-1.408-1.094-1.957l0.005 0.005c-0.135-0.157-0.334-0.256-0.555-0.258h-0c-0.222 0.002-0.42 0.101-0.555 0.257l-0.001 0.001-2.24 2.514c-0.414-0.414-0.96-0.661-1.552-0.661-0.135 0-0.269 0.013-0.403 0.039-0.483 0.094-0.926 0.358-1.267 0.746-0.294-0.164-0.645-0.26-1.019-0.26-0.141 0-0.279 0.014-0.412 0.040l0.013-0.002c-0.12 0.024-0.223 0.053-0.323 0.089l0.015-0.005v-1.937c0-1.334-0.958-2.421-2.142-2.444v-1.099c0.363-0.071 0.639-0.424 0.639-0.85v-2.49c0-0.476-0.346-0.863-0.771-0.863h-3.762c-0.425 0-0.771 0.387-0.771 0.863v2.49c0 0.426 0.277 0.779 0.639 0.85v1.098c-1.185 0.023-2.141 1.11-2.141 2.445v15.121c-0.927 0.941-1.499 2.234-1.499 3.661 0 0.006 0 0.013 0 0.019v-0.001c0 2.835 2.222 5.142 4.953 5.142l18.515-0.006c0.632 0 1.226-0.312 1.63-0.853 0.394-0.528 0.561-1.213 0.465-1.889l3.698 0.744c0.046 0.009 0.099 0.015 0.154 0.015 0.195 0 0.374-0.069 0.514-0.184l-0.001 0.001c0.192-0.153 0.322-0.392 0.357-0.653l0.1-0.753c0.006-0.044 0.010-0.095 0.010-0.146 0-0.062-0.005-0.123-0.015-0.183l0.001 0.006c-0.064-0.385-0.326-0.691-0.667-0.778l-1.304-0.335 2.45-0.504c0.242-0.054 0.442-0.203 0.563-0.405l0.002-0.004c0.133-0.216 0.182-0.477 0.14-0.734zM26.677 14.997c0.278 0 0.552 0.049 0.816 0.147 0.083 0.273 0.131 0.587 0.131 0.912 0 0.537-0.13 1.043-0.36 1.488l0.009-0.018h-1.246l0.397-0.446c0.181-0.202 0.18-0.531-0.001-0.733-0.079-0.093-0.196-0.151-0.327-0.151s-0.248 0.059-0.327 0.151l-0 0.001-0.211 0.236c-0.1-0.369-0.272-0.689-0.5-0.96l0.003 0.004c0.459-0.408 1.023-0.63 1.617-0.63zM24.068 12.401c0.835 0 1.516 0.764 1.516 1.702 0 0.017-0.001 0.035-0.002 0.052-0.52 0.196-0.962 0.496-1.319 0.876l-0.002 0.002c-0.048-0.022-0.109-0.045-0.172-0.066l-0.014-0.004c-0.135-0.819-0.628-1.475-1.279-1.781 0.27-0.469 0.739-0.78 1.272-0.78zM21.623 9.515c0.314 0 0.623 0.057 0.921 0.17 0.096 0.309 0.151 0.665 0.151 1.034 0 0.49-0.098 0.957-0.275 1.383l0.009-0.024c-0.25 0.257-0.451 0.563-0.586 0.902l-0.007 0.019c-0.083 0.006-0.165 0.016-0.247 0.031-0.383 0.080-0.717 0.257-0.984 0.504l0.001-0.001c-0.102-0.207-0.219-0.386-0.353-0.549l0.004 0.005 1.061-1.19c0.18-0.203 0.18-0.531-0.001-0.733-0.079-0.093-0.196-0.151-0.327-0.151s-0.248 0.059-0.327 0.151l-0 0.001-1.16 1.301c-0.205-0.112-0.444-0.194-0.697-0.234l-0.013-0.002c0.108-0.618 0.376-1.201 0.79-1.666 0.545-0.612 1.269-0.949 2.040-0.949zM18.078 17.526h-0.401c-0.067-0.193-0.235-0.33-0.431-0.33s-0.363 0.136-0.43 0.329h-0.472c0.043-0.078 0.068-0.171 0.068-0.27 0-0.141-0.051-0.269-0.136-0.368l0.001 0.001c-0.079-0.093-0.196-0.152-0.327-0.152s-0.248 0.059-0.327 0.152l-0.001 0.001-0.436 0.49c-0.037 0.042-0.068 0.091-0.090 0.144l-0.001 0.003h-0.941c-0.352-0.6-0.57-1.318-0.593-2.084l-0-0.007h7.339c-0.023 0.773-0.241 1.49-0.604 2.112l0.011-0.021h-0.98c-0.024-0.057-0.054-0.105-0.092-0.148l0 0.001-0.436-0.49c-0.079-0.093-0.196-0.152-0.327-0.152s-0.248 0.059-0.326 0.151l-0 0.001c-0.155 0.173-0.177 0.438-0.067 0.637zM17.003 14.399c0.174-0.724 0.764-1.258 1.462-1.258s1.288 0.534 1.462 1.258h-2.925zM17.948 8.028c0.418 0.508 0.723 1.125 0.869 1.802l0.005 0.028c-0.225 0.273-0.421 0.583-0.576 0.917l-0.011 0.027c-0.067-0.048-0.151-0.076-0.241-0.077h-0.616c-0.255 0-0.463 0.232-0.463 0.518s0.207 0.518 0.463 0.518h0.541c-0.026 0.114-0.051 0.261-0.069 0.411l-0.002 0.023c-0.184 0.054-0.359 0.131-0.523 0.229-0.309-0.596-0.819-1.040-1.424-1.218l-0.001-0.004c-0.039-0.249-0.104-0.472-0.193-0.682l0.007 0.019 2.234-2.509zM9.586 12.703c-0.024-0.072-0.046-0.16-0.060-0.249l-0.001-0.010c-0.133-0.857 0.383-1.675 1.15-1.825 0.081-0.016 0.163-0.024 0.244-0.024 0.323 0.002 0.617 0.121 0.844 0.316l-0.002-0.001c0.102 0.085 0.231 0.12 0.356 0.095 0.132-0.029 0.241-0.111 0.305-0.222l0.001-0.002c0.217-0.367 0.55-0.61 0.936-0.685 0.081-0.016 0.163-0.024 0.244-0.024 0.685 0 1.268 0.549 1.385 1.306 0.013 0.087 0.020 0.177 0.020 0.269 0.001 0.268 0.184 0.492 0.422 0.515 0.518 0.051 0.958 0.415 1.162 0.929-0.273 0.366-0.462 0.81-0.533 1.292l-0.002 0.016h-2.638c-0.328 0-0.609 0.227-0.727 0.548-0.541-0.423-1.231-0.679-1.981-0.682h-0.001c-0.449 0-0.889 0.095-1.308 0.282-0.074 0.034-0.137 0.081-0.188 0.139l-0.001 0.001c-0.055 0.062-0.097 0.134-0.125 0.212-0.097 0.266-0.173 0.577-0.213 0.899l-0.002 0.021c-0.167-0.214-0.284-0.475-0.327-0.76l-0.001-0.009c-0.109-0.702 0.22-1.402 0.799-1.702 0.218-0.112 0.323-0.392 0.241-0.645zM10.965 17.384l0.126 0.141h-1.112c-0.136-0.345-0.215-0.745-0.215-1.164 0-0.325 0.048-0.64 0.136-0.936l-0.006 0.023c0.242-0.093 0.522-0.147 0.815-0.147h0c0.697 0 1.353 0.305 1.846 0.859 0.066 0.074 0.127 0.151 0.184 0.231 0.079 0.397 0.199 0.777 0.354 1.135h-0.697l-0.778-0.874c-0.079-0.093-0.196-0.152-0.328-0.152s-0.248 0.059-0.327 0.151l-0.001 0.001c-0.181 0.202-0.181 0.53-0.001 0.733zM8.995 17.525h-1.649c0.073-0.502 0.342-0.93 0.717-1.182 0.216 0.326 0.499 0.59 0.832 0.777l0.012 0.006c0.024 0.135 0.052 0.268 0.088 0.399zM4.327 1.036h3.454v2.144h-3.454v-2.145zM7.141 4.216v1.083h-2.175v-1.083h2.175zM2.825 9.847h3.003c0.255 0 0.463-0.232 0.463-0.519s-0.207-0.518-0.463-0.518h-3.003v-1.065c0-0.778 0.563-1.409 1.254-1.409h3.949c0.692 0 1.255 0.632 1.255 1.409v1.065h-0.864c-0.255 0-0.463 0.232-0.463 0.518s0.208 0.518 0.463 0.518h0.864v0.46c-0.53 0.582-0.805 1.435-0.669 2.313l0.001 0.006c-0.742 0.57-1.137 1.584-0.98 2.602 0.009 0.059 0.020 0.118 0.033 0.176-0.239 0.15-0.442 0.33-0.613 0.538l-0.003 0.004h-4.226v-6.098zM2.825 16.981h3.688c-0.049 0.175-0.083 0.357-0.1 0.545h-0.079c-0.426 0-0.772 0.387-0.772 0.865 0 0.822 0.069 1.63 0.2 2.42-0.121-0.011-0.262-0.018-0.404-0.018-0.001 0-0.002 0-0.004 0h0c-0.56 0-1.093 0.099-1.501 0.28-0.625 0.276-0.797 0.668-0.835 0.94-0.089 0.050-0.153 0.088-0.216 0.128l0.021-0.012v-5.146zM8.682 23.346c0.167 0.149 0.268 0.276 0.328 0.368h-0.017c-0.262 0-0.732-0.118-1.267-0.45-0.2-0.124-0.373-0.257-0.532-0.405l0.002 0.002c-0.077-0.076-0.183-0.123-0.299-0.123s-0.222 0.047-0.299 0.123l0-0c-0.148 0.14-0.331 0.28-0.531 0.404-0.535 0.331-1.005 0.45-1.267 0.45h-0.017c0.095-0.14 0.203-0.26 0.324-0.366l0.002-0.002c0.108-0.102 0.175-0.245 0.175-0.405 0-0.051-0.007-0.1-0.020-0.147l0.001 0.004c-0.052-0.201-0.205-0.348-0.391-0.372-0.451-0.059-0.737-0.188-0.87-0.282 0.167-0.117 0.591-0.316 1.353-0.316 0.63 0 1.092 0.149 1.313 0.288 0.141 0.088 0.313 0.088 0.453 0 0.222-0.139 0.683-0.288 1.314-0.288 0.762 0 1.185 0.199 1.353 0.316-0.134 0.094-0.419 0.222-0.871 0.282-0.185 0.024-0.339 0.171-0.391 0.372-0.012 0.043-0.019 0.092-0.019 0.143 0 0.159 0.067 0.302 0.174 0.404l0 0zM7.757 29.652l0.016 0.096c0.055 0.333 0.171 0.638 0.333 0.904h-2.752c-2.221 0-4.028-1.841-4.028-4.106 0-0.003 0-0.007 0-0.011 0-1.528 0.832-2.862 2.067-3.574l0.020-0.011c0.143 0.12 0.321 0.222 0.532 0.305-0.084 0.16-0.142 0.332-0.156 0.512-0.018 0.239 0.047 0.466 0.184 0.639 0.181 0.229 0.459 0.345 0.825 0.345 0.488 0 1.13-0.217 1.716-0.58 0.135-0.083 0.262-0.171 0.381-0.264 0.119 0.092 0.247 0.181 0.382 0.264 0.585 0.363 1.226 0.58 1.715 0.58 0.367 0 0.645-0.116 0.825-0.345 0.137-0.173 0.202-0.4 0.184-0.639-0.018-0.19-0.073-0.364-0.159-0.519l0.003 0.007c0.211-0.083 0.389-0.186 0.532-0.305 0.993 0.57 1.715 1.515 1.977 2.638l0.005 0.028-3.272 1.392c-0.958 0.407-1.517 1.52-1.332 2.645zM24.789 30.164c-0.228 0.305-0.564 0.481-0.921 0.481h-0.486l-0.303-1.834c-0.047-0.281-0.288-0.467-0.539-0.415-0.252 0.053-0.418 0.323-0.371 0.604l0.272 1.646-1.592 0.001-0.205-1.241c-0.047-0.281-0.288-0.467-0.539-0.415s-0.418 0.323-0.371 0.604l0.173 1.052-3.702 0.002-0.278-1.684c-0.047-0.282-0.288-0.468-0.539-0.415s-0.417 0.322-0.371 0.604l0.247 1.497-5.406 0.002c-0.578 0-1.073-0.459-1.178-1.093l-0.016-0.096c-0.104-0.633 0.211-1.258 0.751-1.488l1.818-0.774 0.136 0.819c0.041 0.25 0.236 0.424 0.454 0.424 0.028 0 0.056-0.003 0.085-0.008 0.251-0.052 0.417-0.323 0.371-0.604l-0.166-1.004 2.699-1.148c0.239-0.102 0.359-0.401 0.268-0.669s-0.358-0.402-0.597-0.3l-1.256 0.534c-0.352-1.397-1.258-2.564-2.457-3.233-0.038-0.271-0.211-0.664-0.835-0.94-0.408-0.181-0.941-0.28-1.501-0.28-0.385 0-0.753 0.048-1.078 0.135v-0.313c0-0.286-0.207-0.518-0.462-0.518-0.11 0.001-0.211 0.043-0.287 0.112l0-0c-0.073-0.541-0.113-1.089-0.12-1.646h15.067c0.255 0 0.463-0.232 0.463-0.518s-0.207-0.518-0.463-0.518h-0.189c0.291-0.658 0.461-1.426 0.461-2.234 0-0.004 0-0.009 0-0.013v0.001c0-0.458-0.312-0.834-0.71-0.876 0.164-0.176 0.379-0.302 0.623-0.352l0.008-0.001c0.071-0.013 0.143-0.021 0.213-0.021 0.597 0 1.105 0.478 1.207 1.138 0.011 0.076 0.017 0.155 0.017 0.234 0 0.268 0.184 0.492 0.422 0.515 0.553 0.054 1.005 0.52 1.1 1.132 0.025 0.163 0.021 0.323-0.004 0.477h-0.496c-0.255 0-0.463 0.232-0.463 0.518s0.208 0.518 0.463 0.518h3.595c-0.011 0.991-0.129 1.948-0.342 2.869l0.017-0.090-2.507 1.658c-0.153-0.598-0.51-1.105-1.001-1.413-0.293-0.191-0.652-0.304-1.037-0.304-0.274 0-0.534 0.057-0.77 0.16l0.012-0.005-5.163 2.197c-0.239 0.102-0.359 0.401-0.268 0.668 0.090 0.268 0.358 0.403 0.597 0.301l0.68-0.29 0.211 1.277c0.042 0.25 0.236 0.424 0.455 0.424 0.028 0 0.056-0.003 0.084-0.008 0.252-0.052 0.418-0.323 0.371-0.604l-0.241-1.462 3.604-1.533c0.126-0.056 0.274-0.088 0.428-0.088 0.218 0 0.42 0.064 0.59 0.174l-0.004-0.003c0.311 0.195 0.526 0.531 0.591 0.921l0.935 5.659c0.013 0.073 0.021 0.158 0.021 0.244 0 0.32-0.104 0.615-0.28 0.854l0.003-0.004zM26.44 26.109c-0.216 0.045-0.374 0.253-0.379 0.499s0.145 0.461 0.359 0.517l3.444 0.884-0.086 0.647-3.993-0.804-0.624-3.774 3.477-2.3 0.29 0.575-2.933 2.196c-0.182 0.137-0.254 0.399-0.171 0.626s0.296 0.359 0.512 0.314l4.607-0.948 0.103 0.62-4.606 0.948z"></path>
</symbol>
<symbol id="icon-sports" viewBox="0 0 32 32">
<path d="M31.020 13.515h-1.907c-0.353 0-0.665 0.182-0.847 0.456-1.458-0.152-1.653-0.386-1.81-0.577-0.213-0.257-0.463-0.473-0.743-0.646l-0.013-0.007-4.383-2.662c-0.892-2.073-2.385-3.37-3.493-4.096-0.417-0.277-0.689-0.745-0.689-1.276 0-0.002 0-0.004 0-0.006v0c0-0.306 0.090-0.603 0.261-0.857l1.090-1.622c0.217-0.323 0.292-0.71 0.211-1.091-0.142-0.65-0.712-1.13-1.395-1.13h-5.178c-0 0-0.001 0-0.001 0-0.787 0-1.426 0.638-1.426 1.426 0 0.297 0.091 0.573 0.246 0.801l-0.003-0.005 1.090 1.622c0.171 0.254 0.261 0.551 0.261 0.857 0 0.52-0.257 0.999-0.689 1.282-1.642 1.077-5.31 4.25-3.923 10.451 0.774 3.459 1.371 5.897 1.731 7.071h-7.73c-0.638 0-1.195 0.453-1.325 1.077l-0.263 1.268c-0.083 0.401 0.017 0.813 0.274 1.13 0.249 0.306 0.626 0.499 1.048 0.499 0.001 0 0.002 0 0.003 0h26.594c0.001 0 0.002 0 0.003 0 0.422 0 0.798-0.194 1.046-0.497l0.002-0.002c0.189-0.23 0.304-0.528 0.304-0.853 0-0.098-0.011-0.194-0.030-0.287l0.002 0.009-0.264-1.269c-0.135-0.618-0.676-1.074-1.325-1.077h-7.729c0.107-0.351 0.237-0.818 0.387-1.396h0.509c0.001 0 0.001 0 0.002 0 1.569 0 3.082-0.242 4.503-0.692l-0.106 0.029 2.913-0.367c0.177 0.314 0.508 0.522 0.887 0.522h1.907c0.561-0 1.016-0.455 1.017-1.017v-6.054c0-0.56-0.456-1.017-1.017-1.017zM11.646 1.326c0.048-0.223 0.244-0.387 0.478-0.387 0 0 0.001 0 0.001 0h5.178c0 0 0.001 0 0.001 0 0.234 0 0.429 0.165 0.476 0.384l0.001 0.003c0.007 0.031 0.011 0.066 0.011 0.102 0 0.102-0.031 0.196-0.084 0.274l0.001-0.002-0.539 0.803h-4.912l-0.539-0.803c-0.052-0.076-0.083-0.17-0.083-0.271 0-0.036 0.004-0.072 0.012-0.106l-0.001 0.003zM12.117 6.768c0.674-0.446 1.113-1.202 1.113-2.059 0-0.003 0-0.005 0-0.008v0c0-0.447-0.12-0.88-0.347-1.262h3.663c-0.218 0.36-0.347 0.796-0.347 1.261 0 0 0 0 0 0.001v-0c0 0.837 0.416 1.609 1.113 2.066 0.287 0.189 0.603 0.419 0.926 0.695h-7.042c0.274-0.237 0.575-0.465 0.89-0.675l0.033-0.021zM28.154 24.775l0.264 1.268c0.006 0.026 0.009 0.056 0.009 0.087 0 0.099-0.035 0.191-0.094 0.262l0.001-0.001c-0.076 0.094-0.191 0.153-0.319 0.153-0.001 0-0.002 0-0.004 0h-26.594c-0.001 0-0.001 0-0.002 0-0.129 0-0.244-0.060-0.32-0.153l-0.001-0.001c-0.058-0.070-0.094-0.161-0.094-0.261 0-0.030 0.003-0.060 0.010-0.089l-0 0.003 0.264-1.269c0.040-0.191 0.211-0.33 0.407-0.33h26.066c0.196 0 0.367 0.139 0.407 0.331zM19.034 23.506h-8.64c-0.193-0.575-0.683-2.285-1.8-7.275-0.471-2.104-0.358-4.009 0.333-5.676h1.726c0.259 0 0.469-0.21 0.469-0.469s-0.21-0.469-0.469-0.469v0h-1.262c0.265-0.457 0.559-0.861 0.865-1.217h8.919c0.306 0.357 0.6 0.761 0.863 1.216h-7.507c-0.259 0-0.469 0.21-0.469 0.469s0.21 0.469 0.469 0.469v0h6.211c-0.070 0.167-0.111 0.361-0.111 0.565 0 0.128 0.016 0.252 0.046 0.371l-0.002-0.010c0.096 0.39 0.338 0.719 0.681 0.927l0.806 0.49h-5.21c-0.827 0-1.498 0.636-1.527 1.449-0.008 0.217 0.030 0.427 0.109 0.621h-0.481c-0.001 0-0.003 0-0.005 0-0.423 0-0.805 0.176-1.076 0.459l-0.001 0.001c-0.261 0.269-0.422 0.637-0.422 1.043 0 0.663 0.431 1.226 1.028 1.423l0.011 0.003c-0.091 0.188-0.144 0.409-0.144 0.642 0 0.83 0.672 1.503 1.502 1.505h0.71c-0.069 0.167-0.11 0.361-0.11 0.564 0 0.83 0.672 1.503 1.502 1.505h3.389c-0.197 0.746-0.324 1.163-0.402 1.396zM25.154 20.523c-0.030 0.004-0.058 0.010-0.084 0.018l0.003-0.001c-1.243 0.402-2.674 0.633-4.159 0.633-0 0-0.001 0-0.001 0h-4.866c-0.305-0.010-0.548-0.26-0.548-0.566s0.243-0.556 0.547-0.566l0.001-0h3.073c0.259 0 0.469-0.21 0.469-0.469s-0.21-0.469-0.469-0.469v0h-5.175c-0.299-0.017-0.536-0.264-0.536-0.566s0.236-0.549 0.534-0.566l0.002-0h5.175c0.259 0 0.469-0.21 0.469-0.469s-0.21-0.469-0.469-0.469v0h-6.043c-0.315 0-0.579-0.245-0.59-0.545-0-0.007-0-0.015-0-0.023 0-0.311 0.252-0.564 0.564-0.564 0.001 0 0.002 0 0.002 0h6.068c0.259 0 0.469-0.21 0.469-0.469s-0.21-0.469-0.469-0.469v0h-4.193c-0.001 0-0.001 0-0.002 0-0.159 0-0.303-0.066-0.405-0.173l-0-0c-0.098-0.101-0.159-0.24-0.159-0.392 0-0.008 0-0.016 0-0.023l-0 0.001c0.011-0.3 0.275-0.545 0.59-0.545h6.461c0.266 0 0.494-0.173 0.566-0.429 0.014-0.048 0.023-0.104 0.023-0.161 0-0.211-0.112-0.396-0.281-0.498l-0.003-0.001-1.876-1.139c-0.127-0.077-0.219-0.2-0.255-0.345l-0.001-0.004c-0.010-0.040-0.016-0.086-0.016-0.133 0-0.313 0.254-0.567 0.567-0.567 0.108 0 0.208 0.030 0.294 0.082l-0.003-0.001 4.786 2.907c0.197 0.12 0.372 0.271 0.52 0.45 0.383 0.463 0.875 0.741 2.362 0.903v5.255l-2.942 0.371zM31.099 20.586c0 0.044-0.035 0.079-0.079 0.079v0h-1.907c-0.043-0-0.079-0.035-0.079-0.079v-6.055c0-0.043 0.035-0.079 0.079-0.079h1.907c0.043 0 0.079 0.035 0.079 0.079v6.054zM22.477 30.488l-2.441-1.965c-0.080-0.065-0.182-0.104-0.294-0.104-0.259 0-0.469 0.21-0.469 0.469 0 0.147 0.068 0.279 0.174 0.365l0.001 0.001 2.249 1.808h-13.965l2.253-1.811c0.107-0.087 0.175-0.218 0.175-0.365 0-0.259-0.21-0.469-0.469-0.469-0.112 0-0.214 0.039-0.295 0.104l0.001-0.001-2.446 1.967c-0.195 0.155-0.32 0.393-0.32 0.66 0 0.102 0.018 0.2 0.052 0.291l-0.002-0.006c0.122 0.345 0.437 0.567 0.802 0.567h14.461c0.366 0 0.68-0.223 0.802-0.567 0.032-0.085 0.050-0.183 0.050-0.286 0-0.266-0.124-0.503-0.317-0.657l-0.002-0.001z"></path>
</symbol>
<symbol id="icon-technique" viewBox="0 0 32 32">
<path d="M21.709 9.697c-0.345 0-0.625 0.28-0.625 0.625s0.28 0.625 0.625 0.625v0c0.345 0 0.625-0.28 0.625-0.625s-0.28-0.625-0.625-0.625v0zM10.353 21.053c-0.345 0-0.625 0.28-0.625 0.625s0.28 0.625 0.625 0.625v0c0.345 0 0.625-0.28 0.625-0.625s-0.28-0.625-0.625-0.625v0z"></path>
<path d="M31.254 3.845c-0.043-0.010-0.091-0.016-0.142-0.016-0.173 0-0.33 0.071-0.444 0.185l-0 0-2.591 2.611h-1.242l-1.367-1.417v-1.259l2.554-2.592c0.111-0.113 0.18-0.268 0.18-0.439 0-0.274-0.176-0.506-0.421-0.591l-0.004-0.001c-0.593-0.206-1.277-0.326-1.989-0.326-0.003 0-0.005 0-0.008 0h0c-2.035 0-3.885 0.949-5.074 2.605-1.113 1.549-1.455 3.448-0.964 5.265l-4.604 4.604-7.67-7.687v-1.509c0-0.219-0.115-0.423-0.303-0.536l-4.419-2.652c-0.092-0.056-0.203-0.089-0.321-0.089-0.173 0-0.329 0.070-0.442 0.183v0l-1.768 1.767c-0.113 0.113-0.183 0.27-0.183 0.442 0 0.119 0.033 0.23 0.091 0.324l-0.002-0.003 2.651 4.419c0.113 0.189 0.317 0.303 0.536 0.303l1.509 0.001 7.67 7.687-4.586 4.586c-1.817-0.491-3.717-0.147-5.267 0.966-1.654 1.189-2.602 3.038-2.602 5.074 0 0.682 0.11 1.354 0.326 1.995 0.086 0.25 0.318 0.426 0.592 0.426 0.174 0 0.331-0.071 0.444-0.185l0-0 2.591-2.611h1.249l1.423 1.423v1.25l-2.611 2.591c-0.114 0.113-0.185 0.27-0.185 0.444 0 0.274 0.176 0.506 0.421 0.591l0.004 0.001c0.642 0.216 1.313 0.326 1.996 0.326 2.035 0 3.884-0.949 5.073-2.603 1.114-1.55 1.457-3.45 0.966-5.267l3.683-3.683 0.844 0.916-0.387 0.387c-0.109 0.112-0.177 0.266-0.177 0.436 0 0.345 0.28 0.625 0.625 0.625 0.17 0 0.323-0.067 0.436-0.177l0.351-0.351 7.934 8.618c0.679 0.679 1.616 1.099 2.652 1.099s1.973-0.42 2.652-1.099l0-0c0.677-0.679 1.096-1.617 1.096-2.652s-0.419-1.972-1.096-2.652l0 0-0.020-0.019-8.613-7.901 0.347-0.347c0.113-0.113 0.183-0.269 0.183-0.442 0-0.345-0.28-0.625-0.625-0.625-0.173 0-0.329 0.070-0.442 0.183v0l-0.385 0.385-0.918-0.843 3.701-3.701c0.526 0.141 1.069 0.211 1.619 0.211 3.446 0 6.25-2.803 6.25-6.249 0-0.683-0.11-1.354-0.326-1.996-0.069-0.206-0.24-0.36-0.451-0.409zM5.518 6.371c-0.112-0.11-0.265-0.177-0.434-0.177-0.003 0-0.006 0-0.009 0h-1.412l-2.219-3.705 1.077-1.078 3.697 2.219v1.414c0 0.166 0.066 0.324 0.183 0.441l7.854 7.871-0.884 0.884-7.853-7.87zM21.415 18.562l8.642 7.928c0.452 0.452 0.732 1.077 0.732 1.768 0 1.381-1.119 2.5-2.5 2.5-0.691 0-1.316-0.28-1.768-0.733v0l-7.941-8.627 2.837-2.837zM20.494 17.717l-2.762 2.762-0.844-0.917 2.688-2.688 0.918 0.843zM25.781 11.25c-0.002 0-0.003 0-0.005 0-0.57 0-1.117-0.095-1.627-0.271l0.035 0.011c-0.059-0.021-0.128-0.033-0.199-0.033-0.173 0-0.329 0.070-0.442 0.183v0l-12.37 12.371c-0.113 0.113-0.183 0.269-0.183 0.442 0 0.071 0.012 0.14 0.034 0.204l-0.001-0.004c0.52 1.543 0.271 3.189-0.682 4.515-0.907 1.266-2.374 2.082-4.031 2.082-0.009 0-0.019-0-0.028-0h0.001c-0.183 0-0.365-0.010-0.545-0.029l1.985-1.97c0.118-0.117 0.185-0.277 0.185-0.443v-1.768c0-0.166-0.066-0.325-0.183-0.442l-1.789-1.789c-0.113-0.113-0.269-0.183-0.442-0.183-0 0-0 0-0 0h-1.769c-0.166 0-0.326 0.066-0.443 0.185l-1.97 1.985c-0.019-0.163-0.029-0.351-0.029-0.542 0-0.001 0-0.002 0-0.003v0c-0-0.008-0-0.018-0-0.027 0-1.657 0.815-3.123 2.067-4.020l0.015-0.010c1.327-0.953 2.973-1.202 4.515-0.682 0.225 0.076 0.474 0.018 0.642-0.15l12.371-12.371c0.168-0.168 0.226-0.416 0.15-0.641-0.52-1.543-0.272-3.188 0.681-4.514 0.907-1.267 2.374-2.083 4.032-2.083 0.009 0 0.019 0 0.028 0h-0.001c0.189 0 0.376 0.010 0.562 0.031l-1.944 1.973c-0.115 0.117-0.179 0.274-0.179 0.439v1.768c0 0.162 0.063 0.318 0.175 0.434l1.727 1.789c0.118 0.123 0.28 0.191 0.45 0.191h1.768c0.167 0 0.326-0.066 0.444-0.185l1.969-1.985c0.019 0.18 0.029 0.362 0.029 0.545 0 2.757-2.243 5-5 5z"></path>
<path d="M19.499 11.647l-7.821 7.822c-0.109 0.112-0.177 0.266-0.177 0.436 0 0.345 0.28 0.625 0.625 0.625 0.17 0 0.323-0.067 0.436-0.177l7.82-7.822c0.117-0.114 0.189-0.272 0.189-0.448 0-0.345-0.28-0.625-0.625-0.625-0.176 0-0.334 0.072-0.448 0.189l-0 0zM27.397 28.25c0.113 0.113 0.269 0.182 0.441 0.182 0.345 0 0.625-0.28 0.625-0.625 0-0.173-0.070-0.33-0.184-0.443l-5.634-5.615c-0.112-0.109-0.266-0.176-0.435-0.176-0.345 0-0.625 0.28-0.625 0.625 0 0.17 0.068 0.324 0.178 0.437l-0-0 5.633 5.615z"></path>
</symbol>
<symbol id="icon-transport" viewBox="0 0 32 32">
<path d="M28.949 12.821l-0.614-0.739-2.157-6.598c-0.367-1.114-1.307-1.853-2.355-1.86h-15.402c-1.048 0-1.988 0.745-2.355 1.86l-2.126 6.516-0.886 0.93c-0.771 0.746-1.217 1.84-1.217 2.989v9.613c0.006 1.573 1.133 2.845 2.518 2.845h1.59c1.385 0 2.511-1.272 2.518-2.845v-1.394h14.938v1.394c0.006 1.573 1.133 2.845 2.518 2.845h1.59c1.386 0 2.512-1.272 2.518-2.845v-9.866c-0.006-1.074-0.392-2.099-1.078-2.845zM7.198 5.949c0.193-0.581 0.681-0.957 1.223-0.957h15.409c0.542 0 1.030 0.383 1.223 0.957l1.879 5.744h-1.403c-0.331-2.565-2.433-4.335-4.692-3.953-1.801 0.301-3.217 1.908-3.482 3.953h-12.036l1.88-5.744zM24.299 11.693h-5.729c0.331-1.799 1.886-2.947 3.47-2.571 1.133 0.274 2.018 1.279 2.259 2.571zM7.258 25.531c-0.006 0.821-0.591 1.477-1.313 1.477h-1.591c-0.723 0-1.307-0.657-1.313-1.477v-1.791c0.361 0.267 0.837 0.397 1.313 0.397h2.903v1.395zM28.822 25.531c-0.006 0.821-0.59 1.477-1.313 1.477h-1.589c-0.723 0-1.307-0.663-1.314-1.477v-1.394h2.903c0.476 0 0.952-0.13 1.313-0.397v1.791zM27.509 22.769h-23.154c-0.717 0.007-1.307-0.643-1.313-1.463v-5.389c0-0.752 0.295-1.47 0.801-1.955l0.024-0.027 0.819-0.875h22.811l0.578 0.704c0.006 0.014 0.025 0.021 0.030 0.034 0.451 0.486 0.711 1.162 0.711 1.867v5.641h0.006c-0.006 0.814-0.596 1.47-1.313 1.463z"></path>
<path d="M9.788 15.795h-4.518c-0.331 0-0.602 0.308-0.602 0.684v3.555c0 0.376 0.271 0.684 0.602 0.684h4.518c0.331 0 0.602-0.308 0.602-0.684v-3.555c0-0.376-0.271-0.684-0.602-0.684zM9.186 19.35h-3.313v-2.188h3.313v2.189zM26.594 15.795h-4.518c-0.331 0-0.602 0.308-0.602 0.684v3.555c0 0.376 0.271 0.684 0.602 0.684h4.518c0.331 0 0.602-0.308 0.602-0.684v-3.555c0-0.376-0.271-0.684-0.602-0.684zM25.991 19.35h-3.313v-2.188h3.313v2.189zM18.842 18.666h-5.819c-0.331 0-0.603 0.308-0.603 0.684s0.271 0.684 0.603 0.684h5.819c0.331 0 0.602-0.308 0.602-0.684s-0.271-0.684-0.603-0.684zM18.842 16.547h-5.819c-0.331 0-0.603 0.307-0.603 0.684s0.271 0.683 0.603 0.683h5.819c0.331 0 0.602-0.307 0.602-0.683s-0.271-0.684-0.603-0.684z"></path>
</symbol>
<symbol id="icon-backspace" viewBox="0 0 32 32">
<path fill="#ff751d" style="fill: var(--color1, #ff751d)" d="M28 14.667h-18.893l4.773-4.787-1.88-1.88-8 8 8 8 1.88-1.88-4.773-4.787h18.893v-2.667z"></path>
</symbol>
<symbol id="icon-logo" viewBox="0 0 93 32">
<path fill="#fb7c2f" style="fill: var(--color2, #fb7c2f)" d="M14.452 5.161h17.548c4.561 0 8.258 3.697 8.258 8.258v10.323c0 4.561-3.697 8.258-8.258 8.258h-17.548c-4.561 0-8.258-3.697-8.258-8.258v-10.323c0-4.561 3.697-8.258 8.258-8.258z"></path>
<path fill="#fb7c2f" opacity="0.2" style="fill: var(--color2, #fb7c2f)" d="M8.258 0h17.548c4.561 0 8.258 3.697 8.258 8.258v10.323c0 4.561-3.697 8.258-8.258 8.258h-17.548c-4.561 0-8.258-3.697-8.258-8.258v-10.323c0-4.561 3.697-8.258 8.258-8.258z"></path>
<path fill="#000" style="fill: var(--color3, #000)" d="M23.88 21.234l1.326-1.455 2.856 4.994h3.834l-4.534-7.483 4.534-5.934h-3.999l-2.893 4.212-1.125 1.704v-5.916h-3.234v13.417h3.235v-3.539zM38.929 23.878c0.086 0.393 0.185 0.692 0.295 0.894h3.105v-0.157c-0.27-0.485-0.411-1.185-0.423-2.101v-4.414c-0.019-1.082-0.396-1.932-1.133-2.553-0.738-0.62-1.742-0.931-3.014-0.931s-2.319 0.301-3.142 0.903c-0.817 0.602-1.225 1.385-1.225 2.35h3.105c0-0.726 0.369-1.088 1.107-1.088 0.792 0 1.188 0.458 1.188 1.373v0.526h-0.958c-1.524 0-2.685 0.276-3.484 0.829-0.799 0.552-1.197 1.37-1.197 2.451 0 0.861 0.328 1.576 0.986 2.147 0.658 0.566 1.455 0.849 2.395 0.849 1.027 0 1.825-0.359 2.397-1.079zM38.237 22.496c-0.252 0.165-0.571 0.249-0.958 0.249-0.295 0-0.537-0.086-0.728-0.258-0.176-0.165-0.286-0.4-0.286-0.66 0-0.011 0-0.022 0.001-0.033l-0 0.002c0-0.97 0.541-1.455 1.622-1.455h0.903v1.595c-0.11 0.209-0.295 0.396-0.553 0.562zM52.89 19.861c0 1.548-0.351 2.786-1.051 3.714-0.694 0.921-1.634 1.382-2.82 1.382-0.915 0-1.667-0.335-2.258-1.004v4.653h-3.105v-13.804h2.903l0.093 0.922c0.595-0.738 1.378-1.107 2.349-1.107 1.228 0 2.183 0.454 2.866 1.365 0.681 0.902 1.023 2.147 1.023 3.732v0.148zM49.784 19.667c0-1.769-0.516-2.653-1.548-2.653-0.737 0-1.228 0.263-1.474 0.792v3.926c0.27 0.553 0.768 0.83 1.494 0.83 0.989 0 1.499-0.855 1.529-2.562v-0.332zM58.575 24.957c1.119 0 2.007-0.421 2.663-1.262l0.093 1.078h2.911v-9.972h-3.123v6.996c-0.3 0.51-0.807 0.764-1.521 0.764-0.829 0-1.244-0.426-1.244-1.28v-6.478h-3.105v6.46c0 1.191 0.279 2.107 0.838 2.746 0.565 0.633 1.394 0.95 2.488 0.95zM71.173 21.971c0-0.264-0.138-0.475-0.415-0.636-0.277-0.159-0.801-0.325-1.575-0.498-0.774-0.171-1.414-0.396-1.917-0.672-0.504-0.283-0.888-0.625-1.152-1.023-0.249-0.375-0.397-0.836-0.397-1.331 0-0.015 0-0.029 0-0.044l-0 0.002c0-0.916 0.378-1.668 1.133-2.259 0.635-0.501 1.434-0.791 2.398-0.871v-2.263h1.48v2.294c0.901 0.109 1.654 0.39 2.26 0.841 0.798 0.597 1.197 1.379 1.197 2.35h-3.114c0-0.799-0.421-1.197-1.262-1.197-0.012-0-0.026-0.001-0.041-0.001-0.297 0-0.569 0.104-0.782 0.278l0.002-0.002c-0.202 0.153-0.331 0.393-0.331 0.663 0 0.004 0 0.007 0 0.011v-0.001c0 0.276 0.134 0.501 0.406 0.672 0.269 0.172 0.7 0.314 1.29 0.424 0.608 0.109 1.135 0.246 1.645 0.42l-0.079-0.023c1.499 0.516 2.248 1.441 2.248 2.774 0 0.908-0.405 1.65-1.216 2.22-0.606 0.43-1.346 0.699-2.222 0.805v2.273h-1.48v-2.244c-0.631-0.050-1.214-0.206-1.748-0.451l0.032 0.013c-0.67-0.307-1.192-0.725-1.567-1.253-0.375-0.527-0.562-1.084-0.562-1.668h2.903c0.011 0.461 0.165 0.799 0.46 1.015 0.295 0.209 0.673 0.313 1.133 0.313 0.423 0 0.74-0.086 0.95-0.258 0.197-0.151 0.322-0.387 0.322-0.652 0-0.007-0-0.015-0-0.022l0 0.001zM80.278 14.802v-2.479h-3.105v2.479h-1.272v2.156h1.272v4.949c0 1.026 0.255 1.791 0.764 2.295 0.511 0.504 1.301 0.756 2.369 0.756 0.609 0 1.192-0.090 1.751-0.268v-2.219c-0.213 0.035-0.458 0.055-0.707 0.055-0.024 0-0.047-0-0.071-0.001l0.004 0c-0.398 0-0.666-0.074-0.801-0.221-0.135-0.148-0.203-0.409-0.203-0.785v-4.561h1.641v-2.157h-1.641zM89.797 24.773c-0.11-0.203-0.209-0.502-0.294-0.895-0.572 0.719-1.37 1.079-2.396 1.079-0.939 0-1.739-0.283-2.396-0.849-0.658-0.571-0.987-1.286-0.987-2.147 0-1.081 0.399-1.898 1.197-2.451 0.8-0.553 1.961-0.83 3.484-0.83h0.959v-0.525c0-0.915-0.396-1.373-1.189-1.373-0.737 0-1.106 0.362-1.106 1.088h-3.105c0-0.965 0.408-1.749 1.225-2.35 0.823-0.602 1.87-0.903 3.142-0.903s2.276 0.31 3.014 0.931c0.736 0.62 1.115 1.471 1.132 2.553v4.414c0.012 0.916 0.155 1.615 0.424 2.101v0.157h-3.105zM87.853 22.745c0.387 0 0.706-0.083 0.958-0.248 0.258-0.167 0.443-0.354 0.553-0.563v-1.595h-0.903c-1.081 0-1.622 0.485-1.622 1.455 0 0.283 0.095 0.514 0.285 0.692 0.191 0.172 0.434 0.258 0.729 0.258z"></path>
</symbol>
<symbol id="icon-calculator" viewBox="0 0 34 32">
<path fill="#52555f" style="fill: var(--color4, #52555f)" d="M28.067 0h-22.978c-1.584 0-2.874 1.262-2.874 2.813v26.374c0 1.552 1.29 2.813 2.874 2.813h22.978c1.584 0 2.874-1.262 2.874-2.813v-26.374c0-1.552-1.29-2.813-2.874-2.813zM29.026 29.187c-0.006 0.519-0.429 0.938-0.949 0.938-0.003 0-0.007-0-0.010-0h-22.977c-0.003 0-0.006 0-0.010 0-0.52 0-0.942-0.418-0.949-0.937v-26.375c0-0.517 0.43-0.938 0.958-0.938h22.978c0.528 0 0.958 0.421 0.958 0.938v26.374z"></path>
<path fill="#52555f" style="fill: var(--color4, #52555f)" d="M26.154 3.75h-19.149c-0.003-0-0.007-0-0.011-0-0.52 0-0.942 0.419-0.947 0.937v7.624c0 0.518 0.429 0.938 0.958 0.938h19.149c0.528 0 0.957-0.419 0.957-0.938v-7.624c-0.005-0.519-0.427-0.938-0.947-0.938-0.003 0-0.007 0-0.010 0h0.001zM25.195 11.374h-17.234v-5.749h17.234v5.749zM10.834 15.125h-3.829c-0.003-0-0.007-0-0.011-0-0.52 0-0.942 0.419-0.947 0.937v3.751c0 0.517 0.429 0.938 0.958 0.938h3.827c0.528 0 0.958-0.421 0.958-0.938v-3.75c-0.005-0.519-0.427-0.938-0.947-0.938-0.004 0-0.008 0-0.012 0h0.001zM9.877 18.875h-1.915v-1.875h1.915v1.875zM10.834 22.624h-3.829c-0.003-0-0.007-0-0.011-0-0.52 0-0.943 0.42-0.947 0.939v3.749c0 0.518 0.429 0.938 0.958 0.938h3.827c0.528 0 0.958-0.419 0.958-0.938v-3.749c-0.005-0.519-0.427-0.938-0.947-0.938-0.004 0-0.008 0-0.012 0h0.001zM9.877 26.374h-1.915v-1.875h1.915v1.875zM18.493 15.125h-3.829c-0.003-0-0.007-0-0.011-0-0.52 0-0.942 0.419-0.947 0.937v3.751c0 0.517 0.429 0.938 0.958 0.938h3.829c0.528 0 0.958-0.421 0.958-0.938v-3.75c-0.005-0.519-0.427-0.938-0.947-0.938-0.004 0-0.008 0-0.012 0h0.001zM17.536 18.875h-1.915v-1.875h1.915v1.875zM18.493 22.624h-3.829c-0.003-0-0.007-0-0.011-0-0.52 0-0.943 0.42-0.947 0.939v3.749c0 0.518 0.429 0.938 0.958 0.938h3.829c0.528 0 0.958-0.419 0.958-0.938v-3.749c-0.005-0.519-0.427-0.938-0.947-0.938-0.004 0-0.008 0-0.012 0h0.001zM17.536 26.374h-1.915v-1.875h1.915v1.875zM26.154 15.125h-3.83c-0.003-0-0.006-0-0.010-0-0.52 0-0.942 0.419-0.947 0.937v11.25c0 0.518 0.429 0.938 0.957 0.938h3.83c0.528 0 0.957-0.419 0.957-0.938v-11.248c-0.005-0.52-0.427-0.939-0.947-0.939-0.003 0-0.007 0-0.010 0h0.001zM25.195 26.374h-1.915v-9.374h1.915v9.376z"></path>
</symbol>
<symbol id="icon-calendar" viewBox="0 0 34 32">
<path fill="#52555f" style="fill: var(--color4, #52555f)" d="M28.424 3.307h-2.136v-0.514c-0.004-0.519-0.425-0.938-0.944-0.938-0.003 0-0.007 0-0.010 0h0c-0.002-0-0.005-0-0.008-0-0.519 0-0.94 0.419-0.944 0.937v0.512h-2.63v-0.512c-0.004-0.519-0.425-0.938-0.944-0.938-0.003 0-0.006 0-0.008 0h0c-0.003-0-0.006-0-0.010-0-0.519 0-0.94 0.419-0.944 0.937v0.512h-2.63v-0.512c-0.004-0.519-0.425-0.938-0.944-0.938-0.003 0-0.006 0-0.008 0h0c-0.003-0-0.006-0-0.010-0-0.519 0-0.94 0.419-0.944 0.937v0.512h-2.629v-0.512c-0.004-0.519-0.425-0.938-0.944-0.938-0.003 0-0.006 0-0.008 0h0c-0.003-0-0.006-0-0.010-0-0.519 0-0.94 0.419-0.944 0.937v0.512h-2.63v-0.512c-0.004-0.519-0.425-0.938-0.944-0.938-0.003 0-0.006 0-0.008 0h0c-0.003-0-0.006-0-0.010-0-0.519 0-0.94 0.419-0.944 0.937v0.512h-2.134c-2.264 0.002-4.106 1.814-4.106 4.042v18.758c0 2.229 1.842 4.040 4.106 4.040h24.318c2.264 0 4.106-1.813 4.106-4.038v-18.763c0-2.227-1.842-4.038-4.106-4.038zM30.624 26.104c0 1.194-0.987 2.165-2.2 2.165h-24.318c-0.004 0-0.009 0-0.014 0-1.199 0-2.173-0.966-2.185-2.162v-15.336h28.718v15.334zM30.624 8.896h-28.72v-1.55c0-1.192 0.987-2.163 2.2-2.163h2.136v0.362c0.004 0.519 0.425 0.938 0.944 0.938 0.003 0 0.007-0 0.010-0h-0c0.002 0 0.005 0 0.008 0 0.519 0 0.94-0.419 0.944-0.937v-0.36h2.63v0.362c0.004 0.519 0.425 0.938 0.944 0.938 0.003 0 0.007-0 0.010-0h-0.001c0.002 0 0.005 0 0.008 0 0.519 0 0.94-0.419 0.944-0.937v-0.362h2.63v0.362c0.004 0.519 0.425 0.938 0.944 0.938 0.003 0 0.007-0 0.010-0h-0c0.002 0 0.005 0 0.008 0 0.519 0 0.94-0.419 0.944-0.937v-0.362h2.63v0.362c0.004 0.519 0.425 0.938 0.944 0.938 0.003 0 0.007-0 0.010-0h-0c0.002 0 0.005 0 0.008 0 0.519 0 0.94-0.419 0.944-0.937v-0.362h2.63v0.362c0.004 0.519 0.425 0.938 0.944 0.938 0.003 0 0.006 0 0.008-0h-0c0.003 0 0.006 0 0.010 0 0.519 0 0.94-0.419 0.944-0.937v-0.362h2.134c1.213 0 2.2 0.971 2.2 2.163v1.552z"></path>
<path fill="#52555f" style="fill: var(--color4, #52555f)" d="M10.624 12.771h-3.76c-0.003-0-0.006-0-0.010-0-0.519 0-0.94 0.419-0.944 0.937v3.828c0.004 0.519 0.425 0.938 0.944 0.938 0.003 0 0.007-0 0.010-0h3.76c0.003 0 0.006 0 0.010 0 0.519 0 0.94-0.419 0.944-0.937v-3.829c-0.005-0.518-0.425-0.936-0.944-0.936-0.003 0-0.007 0-0.010 0h0.001zM9.67 16.598h-1.854v-1.952h1.856v1.952zM18.144 12.771h-3.76c-0.002-0-0.005-0-0.008-0-0.519 0-0.94 0.419-0.944 0.937v3.828c0.004 0.519 0.425 0.938 0.944 0.938 0.003 0 0.006 0 0.008-0h3.76c0.003 0 0.006 0 0.010 0 0.519 0 0.94-0.419 0.944-0.937v-3.829c-0.005-0.518-0.425-0.936-0.944-0.936-0.003 0-0.006 0-0.008 0h0zM17.192 16.598h-1.854v-1.952h1.856v1.952zM25.666 12.771h-3.76c-0.003-0-0.006-0-0.010-0-0.519 0-0.94 0.419-0.944 0.937v3.828c0.004 0.519 0.425 0.938 0.944 0.938 0.003 0 0.007-0 0.010-0h3.759c0.003 0 0.006 0 0.010 0 0.519 0 0.94-0.419 0.944-0.937v-3.829c-0.005-0.518-0.425-0.936-0.944-0.936-0.003 0-0.007 0-0.010 0h0zM24.714 16.598h-1.856v-1.952h1.856v1.952zM10.624 20.042h-3.76c-0.003-0-0.006-0-0.010-0-0.519 0-0.94 0.419-0.944 0.937v3.828c0.004 0.519 0.425 0.938 0.944 0.938 0.003 0 0.007-0 0.010-0h3.76c0.003 0 0.006 0 0.010 0 0.519 0 0.94-0.419 0.944-0.937v-3.828c-0.004-0.519-0.425-0.938-0.944-0.938-0.003 0-0.007 0-0.010 0h0.001zM9.67 23.869h-1.854v-1.952h1.856v1.952zM18.144 20.042h-3.76c-0.002-0-0.005-0-0.008-0-0.519 0-0.94 0.419-0.944 0.937v3.828c0.004 0.519 0.425 0.938 0.944 0.938 0.003 0 0.006 0 0.008-0h3.76c0.003 0 0.006 0 0.010 0 0.519 0 0.94-0.419 0.944-0.937v-3.828c-0.004-0.519-0.425-0.938-0.944-0.938-0.003 0-0.006 0-0.008 0h0zM17.192 23.869h-1.854v-1.952h1.856v1.952zM25.666 20.042h-3.76c-0.003-0-0.006-0-0.010-0-0.519 0-0.94 0.419-0.944 0.937v3.828c0.004 0.519 0.425 0.938 0.944 0.938 0.003 0 0.007-0 0.010-0h3.759c0.003 0 0.006 0 0.010 0 0.519 0 0.94-0.419 0.944-0.937v-3.828c-0.004-0.519-0.425-0.938-0.944-0.938-0.003 0-0.007 0-0.010 0h0zM24.714 23.869h-1.856v-1.952h1.856v1.952z"></path>
</symbol>
<symbol id="icon-delete" viewBox="0 0 32 32">
<path fill="#52555f" style="fill: var(--color4, #52555f)" d="M28.992 7.152l-0.706-2.117c-0.269-0.791-1.005-1.349-1.871-1.349-0 0-0.001 0-0.001 0h-5.938v-1.932c-0.001-0.968-0.785-1.752-1.753-1.753h-5.438c-0.967 0.002-1.75 0.786-1.751 1.753v1.933h-5.938c-0.85 0-1.602 0.542-1.872 1.349l-0.706 2.117c-0.051 0.149-0.080 0.32-0.080 0.498 0 0.876 0.708 1.586 1.584 1.589h0.738l1.627 20.101c0.121 1.492 1.387 2.66 2.88 2.66h12.805c1.493 0 2.761-1.168 2.88-2.66l1.627-20.101h0.409c0.875-0.003 1.584-0.713 1.584-1.589 0-0.178-0.029-0.349-0.083-0.509l0.003 0.011zM13.41 1.876h5.191v1.81h-5.191v-1.81zM23.584 29.189c-0.046 0.524-0.482 0.932-1.013 0.935h-12.8c-0.532-0.003-0.967-0.411-1.013-0.931l-0-0.004-1.616-19.95h18.057l-1.614 19.95zM4.924 7.365l0.58-1.737c0.013-0.039 0.049-0.067 0.092-0.068h20.818c0.043 0 0.080 0.027 0.092 0.068l0.58 1.737h-22.162z"></path>
<path fill="#52555f" style="fill: var(--color4, #52555f)" d="M20.596 29.122h0.048c0 0 0.001 0 0.001 0 0.501 0 0.909-0.393 0.936-0.887l0-0.002 0.88-16.898c0-0.005 0-0.012 0-0.018 0-0.518-0.42-0.939-0.939-0.939-0.49 0-0.893 0.376-0.935 0.856l-0 0.004-0.88 16.9c-0.001 0.015-0.001 0.032-0.001 0.049 0 0.501 0.393 0.91 0.888 0.936l0.002 0zM10.473 28.236c0.028 0.495 0.436 0.887 0.936 0.887 0.518 0 0.937-0.42 0.937-0.937 0-0.018-0.001-0.036-0.001-0.053l0 0.002-0.921-16.9c-0.028-0.496-0.437-0.888-0.937-0.888-0.518 0-0.938 0.42-0.938 0.938 0 0.018 0.001 0.036 0.001 0.053l-0-0.002 0.923 16.9zM16.016 29.124c0.517 0 0.937-0.419 0.937-0.937v0-16.9c0-0.517-0.419-0.937-0.937-0.937s-0.937 0.419-0.937 0.937v0 16.9c0 0.517 0.42 0.937 0.937 0.937z"></path>
</symbol>
</defs>
</svg>
