<svg aria-hidden="true" style="position: absolute; width: 0; height: 0; overflow: hidden;" version="1.1" xmlns="http://www.w3.org/2000/svg" xmlns:xlink="http://www.w3.org/1999/xlink">
<defs>
<symbol id="icon-calculator" viewBox="0 0 34 32">
<path fill="#52555f" style="fill: var(--color1, #52555f)" d="M28.067 0h-22.978c-1.584 0-2.874 1.262-2.874 2.813v26.374c0 1.552 1.29 2.813 2.874 2.813h22.978c1.584 0 2.874-1.262 2.874-2.813v-26.374c0-1.552-1.29-2.813-2.874-2.813zM29.026 29.187c-0.006 0.519-0.429 0.938-0.949 0.938-0.003 0-0.007-0-0.010-0h-22.977c-0.003 0-0.006 0-0.010 0-0.52 0-0.942-0.418-0.949-0.937v-26.375c0-0.517 0.43-0.938 0.958-0.938h22.978c0.528 0 0.958 0.421 0.958 0.938v26.374z"></path>
<path fill="#52555f" style="fill: var(--color1, #52555f)" d="M26.154 3.75h-19.149c-0.003-0-0.007-0-0.011-0-0.52 0-0.942 0.419-0.947 0.937v7.624c0 0.518 0.429 0.938 0.958 0.938h19.149c0.528 0 0.957-0.419 0.957-0.938v-7.624c-0.005-0.519-0.427-0.938-0.947-0.938-0.003 0-0.007 0-0.010 0h0.001zM25.195 11.374h-17.234v-5.749h17.234v5.749zM10.834 15.125h-3.829c-0.003-0-0.007-0-0.011-0-0.52 0-0.942 0.419-0.947 0.937v3.751c0 0.517 0.429 0.938 0.958 0.938h3.827c0.528 0 0.958-0.421 0.958-0.938v-3.75c-0.005-0.519-0.427-0.938-0.947-0.938-0.004 0-0.008 0-0.012 0h0.001zM9.877 18.875h-1.915v-1.875h1.915v1.875zM10.834 22.624h-3.829c-0.003-0-0.007-0-0.011-0-0.52 0-0.943 0.42-0.947 0.939v3.749c0 0.518 0.429 0.938 0.958 0.938h3.827c0.528 0 0.958-0.419 0.958-0.938v-3.749c-0.005-0.519-0.427-0.938-0.947-0.938-0.004 0-0.008 0-0.012 0h0.001zM9.877 26.374h-1.915v-1.875h1.915v1.875zM18.493 15.125h-3.829c-0.003-0-0.007-0-0.011-0-0.52 0-0.942 0.419-0.947 0.937v3.751c0 0.517 0.429 0.938 0.958 0.938h3.829c0.528 0 0.958-0.421 0.958-0.938v-3.75c-0.005-0.519-0.427-0.938-0.947-0.938-0.004 0-0.008 0-0.012 0h0.001zM17.536 18.875h-1.915v-1.875h1.915v1.875zM18.493 22.624h-3.829c-0.003-0-0.007-0-0.011-0-0.52 0-0.943 0.42-0.947 0.939v3.749c0 0.518 0.429 0.938 0.958 0.938h3.829c0.528 0 0.958-0.419 0.958-0.938v-3.749c-0.005-0.519-0.427-0.938-0.947-0.938-0.004 0-0.008 0-0.012 0h0.001zM17.536 26.374h-1.915v-1.875h1.915v1.875zM26.154 15.125h-3.83c-0.003-0-0.006-0-0.010-0-0.52 0-0.942 0.419-0.947 0.937v11.25c0 0.518 0.429 0.938 0.957 0.938h3.83c0.528 0 0.957-0.419 0.957-0.938v-11.248c-0.005-0.52-0.427-0.939-0.947-0.939-0.003 0-0.007 0-0.010 0h0.001zM25.195 26.374h-1.915v-9.374h1.915v9.376z"></path>
</symbol>
<symbol id="icon-calendar" viewBox="0 0 34 32">
<path fill="#52555f" style="fill: var(--color1, #52555f)" d="M28.424 3.307h-2.136v-0.514c-0.004-0.519-0.425-0.938-0.944-0.938-0.003 0-0.007 0-0.010 0h0c-0.002-0-0.005-0-0.008-0-0.519 0-0.94 0.419-0.944 0.937v0.512h-2.63v-0.512c-0.004-0.519-0.425-0.938-0.944-0.938-0.003 0-0.006 0-0.008 0h0c-0.003-0-0.006-0-0.010-0-0.519 0-0.94 0.419-0.944 0.937v0.512h-2.63v-0.512c-0.004-0.519-0.425-0.938-0.944-0.938-0.003 0-0.006 0-0.008 0h0c-0.003-0-0.006-0-0.010-0-0.519 0-0.94 0.419-0.944 0.937v0.512h-2.629v-0.512c-0.004-0.519-0.425-0.938-0.944-0.938-0.003 0-0.006 0-0.008 0h0c-0.003-0-0.006-0-0.010-0-0.519 0-0.94 0.419-0.944 0.937v0.512h-2.63v-0.512c-0.004-0.519-0.425-0.938-0.944-0.938-0.003 0-0.006 0-0.008 0h0c-0.003-0-0.006-0-0.010-0-0.519 0-0.94 0.419-0.944 0.937v0.512h-2.134c-2.264 0.002-4.106 1.814-4.106 4.042v18.758c0 2.229 1.842 4.040 4.106 4.040h24.318c2.264 0 4.106-1.813 4.106-4.038v-18.763c0-2.227-1.842-4.038-4.106-4.038zM30.624 26.104c0 1.194-0.987 2.165-2.2 2.165h-24.318c-0.004 0-0.009 0-0.014 0-1.199 0-2.173-0.966-2.185-2.162v-15.336h28.718v15.334zM30.624 8.896h-28.72v-1.55c0-1.192 0.987-2.163 2.2-2.163h2.136v0.362c0.004 0.519 0.425 0.938 0.944 0.938 0.003 0 0.007-0 0.010-0h-0c0.002 0 0.005 0 0.008 0 0.519 0 0.94-0.419 0.944-0.937v-0.36h2.63v0.362c0.004 0.519 0.425 0.938 0.944 0.938 0.003 0 0.007-0 0.010-0h-0.001c0.002 0 0.005 0 0.008 0 0.519 0 0.94-0.419 0.944-0.937v-0.362h2.63v0.362c0.004 0.519 0.425 0.938 0.944 0.938 0.003 0 0.007-0 0.010-0h-0c0.002 0 0.005 0 0.008 0 0.519 0 0.94-0.419 0.944-0.937v-0.362h2.63v0.362c0.004 0.519 0.425 0.938 0.944 0.938 0.003 0 0.007-0 0.010-0h-0c0.002 0 0.005 0 0.008 0 0.519 0 0.94-0.419 0.944-0.937v-0.362h2.63v0.362c0.004 0.519 0.425 0.938 0.944 0.938 0.003 0 0.006 0 0.008-0h-0c0.003 0 0.006 0 0.010 0 0.519 0 0.94-0.419 0.944-0.937v-0.362h2.134c1.213 0 2.2 0.971 2.2 2.163v1.552z"></path>
<path fill="#52555f" style="fill: var(--color1, #52555f)" d="M10.624 12.771h-3.76c-0.003-0-0.006-0-0.010-0-0.519 0-0.94 0.419-0.944 0.937v3.828c0.004 0.519 0.425 0.938 0.944 0.938 0.003 0 0.007-0 0.010-0h3.76c0.003 0 0.006 0 0.010 0 0.519 0 0.94-0.419 0.944-0.937v-3.829c-0.005-0.518-0.425-0.936-0.944-0.936-0.003 0-0.007 0-0.010 0h0.001zM9.67 16.598h-1.854v-1.952h1.856v1.952zM18.144 12.771h-3.76c-0.002-0-0.005-0-0.008-0-0.519 0-0.94 0.419-0.944 0.937v3.828c0.004 0.519 0.425 0.938 0.944 0.938 0.003 0 0.006 0 0.008-0h3.76c0.003 0 0.006 0 0.010 0 0.519 0 0.94-0.419 0.944-0.937v-3.829c-0.005-0.518-0.425-0.936-0.944-0.936-0.003 0-0.006 0-0.008 0h0zM17.192 16.598h-1.854v-1.952h1.856v1.952zM25.666 12.771h-3.76c-0.003-0-0.006-0-0.010-0-0.519 0-0.94 0.419-0.944 0.937v3.828c0.004 0.519 0.425 0.938 0.944 0.938 0.003 0 0.007-0 0.010-0h3.759c0.003 0 0.006 0 0.010 0 0.519 0 0.94-0.419 0.944-0.937v-3.829c-0.005-0.518-0.425-0.936-0.944-0.936-0.003 0-0.007 0-0.010 0h0zM24.714 16.598h-1.856v-1.952h1.856v1.952zM10.624 20.042h-3.76c-0.003-0-0.006-0-0.010-0-0.519 0-0.94 0.419-0.944 0.937v3.828c0.004 0.519 0.425 0.938 0.944 0.938 0.003 0 0.007-0 0.010-0h3.76c0.003 0 0.006 0 0.010 0 0.519 0 0.94-0.419 0.944-0.937v-3.828c-0.004-0.519-0.425-0.938-0.944-0.938-0.003 0-0.007 0-0.010 0h0.001zM9.67 23.869h-1.854v-1.952h1.856v1.952zM18.144 20.042h-3.76c-0.002-0-0.005-0-0.008-0-0.519 0-0.94 0.419-0.944 0.937v3.828c0.004 0.519 0.425 0.938 0.944 0.938 0.003 0 0.006 0 0.008-0h3.76c0.003 0 0.006 0 0.010 0 0.519 0 0.94-0.419 0.944-0.937v-3.828c-0.004-0.519-0.425-0.938-0.944-0.938-0.003 0-0.006 0-0.008 0h0zM17.192 23.869h-1.854v-1.952h1.856v1.952zM25.666 20.042h-3.76c-0.003-0-0.006-0-0.010-0-0.519 0-0.94 0.419-0.944 0.937v3.828c0.004 0.519 0.425 0.938 0.944 0.938 0.003 0 0.007-0 0.010-0h3.759c0.003 0 0.006 0 0.010 0 0.519 0 0.94-0.419 0.944-0.937v-3.828c-0.004-0.519-0.425-0.938-0.944-0.938-0.003 0-0.007 0-0.010 0h0zM24.714 23.869h-1.856v-1.952h1.856v1.952z"></path>
</symbol>
<symbol id="icon-delete" viewBox="0 0 32 32">
<path fill="#52555f" style="fill: var(--color1, #52555f)" d="M28.992 7.152l-0.706-2.117c-0.269-0.791-1.005-1.349-1.871-1.349-0 0-0.001 0-0.001 0h-5.938v-1.932c-0.001-0.968-0.785-1.752-1.753-1.753h-5.438c-0.967 0.002-1.75 0.786-1.751 1.753v1.933h-5.938c-0.85 0-1.602 0.542-1.872 1.349l-0.706 2.117c-0.051 0.149-0.080 0.32-0.080 0.498 0 0.876 0.708 1.586 1.584 1.589h0.738l1.627 20.101c0.121 1.492 1.387 2.66 2.88 2.66h12.805c1.493 0 2.761-1.168 2.88-2.66l1.627-20.101h0.409c0.875-0.003 1.584-0.713 1.584-1.589 0-0.178-0.029-0.349-0.083-0.509l0.003 0.011zM13.41 1.876h5.191v1.81h-5.191v-1.81zM23.584 29.189c-0.046 0.524-0.482 0.932-1.013 0.935h-12.8c-0.532-0.003-0.967-0.411-1.013-0.931l-0-0.004-1.616-19.95h18.057l-1.614 19.95zM4.924 7.365l0.58-1.737c0.013-0.039 0.049-0.067 0.092-0.068h20.818c0.043 0 0.080 0.027 0.092 0.068l0.58 1.737h-22.162z"></path>
<path fill="#52555f" style="fill: var(--color1, #52555f)" d="M20.596 29.122h0.048c0 0 0.001 0 0.001 0 0.501 0 0.909-0.393 0.936-0.887l0-0.002 0.88-16.898c0-0.005 0-0.012 0-0.018 0-0.518-0.42-0.939-0.939-0.939-0.49 0-0.893 0.376-0.935 0.856l-0 0.004-0.88 16.9c-0.001 0.015-0.001 0.032-0.001 0.049 0 0.501 0.393 0.91 0.888 0.936l0.002 0zM10.473 28.236c0.028 0.495 0.436 0.887 0.936 0.887 0.518 0 0.937-0.42 0.937-0.937 0-0.018-0.001-0.036-0.001-0.053l0 0.002-0.921-16.9c-0.028-0.496-0.437-0.888-0.937-0.888-0.518 0-0.938 0.42-0.938 0.938 0 0.018 0.001 0.036 0.001 0.053l-0-0.002 0.923 16.9zM16.016 29.124c0.517 0 0.937-0.419 0.937-0.937v0-16.9c0-0.517-0.419-0.937-0.937-0.937s-0.937 0.419-0.937 0.937v0 16.9c0 0.517 0.42 0.937 0.937 0.937z"></path>
</symbol>
</defs>
</svg>
