<svg aria-hidden="true" style="position: absolute; width: 0; height: 0; overflow: hidden;" version="1.1" xmlns="http://www.w3.org/2000/svg" xmlns:xlink="http://www.w3.org/1999/xlink">
<defs>
<symbol id="icon-backspace" viewBox="0 0 32 32">
<path fill="#ff751d" style="fill: var(--color1, #ff751d)" d="M28 14.667h-18.893l4.773-4.787-1.88-1.88-8 8 8 8 1.88-1.88-4.773-4.787h18.893v-2.667z"></path>
</symbol>
<symbol id="icon-logo" viewBox="0 0 93 32">
<path fill="#fb7c2f" style="fill: var(--color2, #fb7c2f)" d="M14.452 5.161h17.548c4.561 0 8.258 3.697 8.258 8.258v10.323c0 4.561-3.697 8.258-8.258 8.258h-17.548c-4.561 0-8.258-3.697-8.258-8.258v-10.323c0-4.561 3.697-8.258 8.258-8.258z"></path>
<path fill="#fb7c2f" opacity="0.2" style="fill: var(--color2, #fb7c2f)" d="M8.258 0h17.548c4.561 0 8.258 3.697 8.258 8.258v10.323c0 4.561-3.697 8.258-8.258 8.258h-17.548c-4.561 0-8.258-3.697-8.258-8.258v-10.323c0-4.561 3.697-8.258 8.258-8.258z"></path>
<path fill="#000" style="fill: var(--color3, #000)" d="M23.88 21.234l1.326-1.455 2.856 4.994h3.834l-4.534-7.483 4.534-5.934h-3.999l-2.893 4.212-1.125 1.704v-5.916h-3.234v13.417h3.235v-3.539zM38.929 23.878c0.086 0.393 0.185 0.692 0.295 0.894h3.105v-0.157c-0.27-0.485-0.411-1.185-0.423-2.101v-4.414c-0.019-1.082-0.396-1.932-1.133-2.553-0.738-0.62-1.742-0.931-3.014-0.931s-2.319 0.301-3.142 0.903c-0.817 0.602-1.225 1.385-1.225 2.35h3.105c0-0.726 0.369-1.088 1.107-1.088 0.792 0 1.188 0.458 1.188 1.373v0.526h-0.958c-1.524 0-2.685 0.276-3.484 0.829-0.799 0.552-1.197 1.37-1.197 2.451 0 0.861 0.328 1.576 0.986 2.147 0.658 0.566 1.455 0.849 2.395 0.849 1.027 0 1.825-0.359 2.397-1.079zM38.237 22.496c-0.252 0.165-0.571 0.249-0.958 0.249-0.295 0-0.537-0.086-0.728-0.258-0.176-0.165-0.286-0.4-0.286-0.66 0-0.011 0-0.022 0.001-0.033l-0 0.002c0-0.97 0.541-1.455 1.622-1.455h0.903v1.595c-0.11 0.209-0.295 0.396-0.553 0.562zM52.89 19.861c0 1.548-0.351 2.786-1.051 3.714-0.694 0.921-1.634 1.382-2.82 1.382-0.915 0-1.667-0.335-2.258-1.004v4.653h-3.105v-13.804h2.903l0.093 0.922c0.595-0.738 1.378-1.107 2.349-1.107 1.228 0 2.183 0.454 2.866 1.365 0.681 0.902 1.023 2.147 1.023 3.732v0.148zM49.784 19.667c0-1.769-0.516-2.653-1.548-2.653-0.737 0-1.228 0.263-1.474 0.792v3.926c0.27 0.553 0.768 0.83 1.494 0.83 0.989 0 1.499-0.855 1.529-2.562v-0.332zM58.575 24.957c1.119 0 2.007-0.421 2.663-1.262l0.093 1.078h2.911v-9.972h-3.123v6.996c-0.3 0.51-0.807 0.764-1.521 0.764-0.829 0-1.244-0.426-1.244-1.28v-6.478h-3.105v6.46c0 1.191 0.279 2.107 0.838 2.746 0.565 0.633 1.394 0.95 2.488 0.95zM71.173 21.971c0-0.264-0.138-0.475-0.415-0.636-0.277-0.159-0.801-0.325-1.575-0.498-0.774-0.171-1.414-0.396-1.917-0.672-0.504-0.283-0.888-0.625-1.152-1.023-0.249-0.375-0.397-0.836-0.397-1.331 0-0.015 0-0.029 0-0.044l-0 0.002c0-0.916 0.378-1.668 1.133-2.259 0.635-0.501 1.434-0.791 2.398-0.871v-2.263h1.48v2.294c0.901 0.109 1.654 0.39 2.26 0.841 0.798 0.597 1.197 1.379 1.197 2.35h-3.114c0-0.799-0.421-1.197-1.262-1.197-0.012-0-0.026-0.001-0.041-0.001-0.297 0-0.569 0.104-0.782 0.278l0.002-0.002c-0.202 0.153-0.331 0.393-0.331 0.663 0 0.004 0 0.007 0 0.011v-0.001c0 0.276 0.134 0.501 0.406 0.672 0.269 0.172 0.7 0.314 1.29 0.424 0.608 0.109 1.135 0.246 1.645 0.42l-0.079-0.023c1.499 0.516 2.248 1.441 2.248 2.774 0 0.908-0.405 1.65-1.216 2.22-0.606 0.43-1.346 0.699-2.222 0.805v2.273h-1.48v-2.244c-0.631-0.050-1.214-0.206-1.748-0.451l0.032 0.013c-0.67-0.307-1.192-0.725-1.567-1.253-0.375-0.527-0.562-1.084-0.562-1.668h2.903c0.011 0.461 0.165 0.799 0.46 1.015 0.295 0.209 0.673 0.313 1.133 0.313 0.423 0 0.74-0.086 0.95-0.258 0.197-0.151 0.322-0.387 0.322-0.652 0-0.007-0-0.015-0-0.022l0 0.001zM80.278 14.802v-2.479h-3.105v2.479h-1.272v2.156h1.272v4.949c0 1.026 0.255 1.791 0.764 2.295 0.511 0.504 1.301 0.756 2.369 0.756 0.609 0 1.192-0.090 1.751-0.268v-2.219c-0.213 0.035-0.458 0.055-0.707 0.055-0.024 0-0.047-0-0.071-0.001l0.004 0c-0.398 0-0.666-0.074-0.801-0.221-0.135-0.148-0.203-0.409-0.203-0.785v-4.561h1.641v-2.157h-1.641zM89.797 24.773c-0.11-0.203-0.209-0.502-0.294-0.895-0.572 0.719-1.37 1.079-2.396 1.079-0.939 0-1.739-0.283-2.396-0.849-0.658-0.571-0.987-1.286-0.987-2.147 0-1.081 0.399-1.898 1.197-2.451 0.8-0.553 1.961-0.83 3.484-0.83h0.959v-0.525c0-0.915-0.396-1.373-1.189-1.373-0.737 0-1.106 0.362-1.106 1.088h-3.105c0-0.965 0.408-1.749 1.225-2.35 0.823-0.602 1.87-0.903 3.142-0.903s2.276 0.31 3.014 0.931c0.736 0.62 1.115 1.471 1.132 2.553v4.414c0.012 0.916 0.155 1.615 0.424 2.101v0.157h-3.105zM87.853 22.745c0.387 0 0.706-0.083 0.958-0.248 0.258-0.167 0.443-0.354 0.553-0.563v-1.595h-0.903c-1.081 0-1.622 0.485-1.622 1.455 0 0.283 0.095 0.514 0.285 0.692 0.191 0.172 0.434 0.258 0.729 0.258z"></path>
</symbol>
<symbol id="icon-calculator" viewBox="0 0 34 32">
<path fill="#52555f" style="fill: var(--color4, #52555f)" d="M28.067 0h-22.978c-1.584 0-2.874 1.262-2.874 2.813v26.374c0 1.552 1.29 2.813 2.874 2.813h22.978c1.584 0 2.874-1.262 2.874-2.813v-26.374c0-1.552-1.29-2.813-2.874-2.813zM29.026 29.187c-0.006 0.519-0.429 0.938-0.949 0.938-0.003 0-0.007-0-0.010-0h-22.977c-0.003 0-0.006 0-0.010 0-0.52 0-0.942-0.418-0.949-0.937v-26.375c0-0.517 0.43-0.938 0.958-0.938h22.978c0.528 0 0.958 0.421 0.958 0.938v26.374z"></path>
<path fill="#52555f" style="fill: var(--color4, #52555f)" d="M26.154 3.75h-19.149c-0.003-0-0.007-0-0.011-0-0.52 0-0.942 0.419-0.947 0.937v7.624c0 0.518 0.429 0.938 0.958 0.938h19.149c0.528 0 0.957-0.419 0.957-0.938v-7.624c-0.005-0.519-0.427-0.938-0.947-0.938-0.003 0-0.007 0-0.010 0h0.001zM25.195 11.374h-17.234v-5.749h17.234v5.749zM10.834 15.125h-3.829c-0.003-0-0.007-0-0.011-0-0.52 0-0.942 0.419-0.947 0.937v3.751c0 0.517 0.429 0.938 0.958 0.938h3.827c0.528 0 0.958-0.421 0.958-0.938v-3.75c-0.005-0.519-0.427-0.938-0.947-0.938-0.004 0-0.008 0-0.012 0h0.001zM9.877 18.875h-1.915v-1.875h1.915v1.875zM10.834 22.624h-3.829c-0.003-0-0.007-0-0.011-0-0.52 0-0.943 0.42-0.947 0.939v3.749c0 0.518 0.429 0.938 0.958 0.938h3.827c0.528 0 0.958-0.419 0.958-0.938v-3.749c-0.005-0.519-0.427-0.938-0.947-0.938-0.004 0-0.008 0-0.012 0h0.001zM9.877 26.374h-1.915v-1.875h1.915v1.875zM18.493 15.125h-3.829c-0.003-0-0.007-0-0.011-0-0.52 0-0.942 0.419-0.947 0.937v3.751c0 0.517 0.429 0.938 0.958 0.938h3.829c0.528 0 0.958-0.421 0.958-0.938v-3.75c-0.005-0.519-0.427-0.938-0.947-0.938-0.004 0-0.008 0-0.012 0h0.001zM17.536 18.875h-1.915v-1.875h1.915v1.875zM18.493 22.624h-3.829c-0.003-0-0.007-0-0.011-0-0.52 0-0.943 0.42-0.947 0.939v3.749c0 0.518 0.429 0.938 0.958 0.938h3.829c0.528 0 0.958-0.419 0.958-0.938v-3.749c-0.005-0.519-0.427-0.938-0.947-0.938-0.004 0-0.008 0-0.012 0h0.001zM17.536 26.374h-1.915v-1.875h1.915v1.875zM26.154 15.125h-3.83c-0.003-0-0.006-0-0.010-0-0.52 0-0.942 0.419-0.947 0.937v11.25c0 0.518 0.429 0.938 0.957 0.938h3.83c0.528 0 0.957-0.419 0.957-0.938v-11.248c-0.005-0.52-0.427-0.939-0.947-0.939-0.003 0-0.007 0-0.010 0h0.001zM25.195 26.374h-1.915v-9.374h1.915v9.376z"></path>
</symbol>
<symbol id="icon-calendar" viewBox="0 0 34 32">
<path fill="#52555f" style="fill: var(--color4, #52555f)" d="M28.424 3.307h-2.136v-0.514c-0.004-0.519-0.425-0.938-0.944-0.938-0.003 0-0.007 0-0.010 0h0c-0.002-0-0.005-0-0.008-0-0.519 0-0.94 0.419-0.944 0.937v0.512h-2.63v-0.512c-0.004-0.519-0.425-0.938-0.944-0.938-0.003 0-0.006 0-0.008 0h0c-0.003-0-0.006-0-0.010-0-0.519 0-0.94 0.419-0.944 0.937v0.512h-2.63v-0.512c-0.004-0.519-0.425-0.938-0.944-0.938-0.003 0-0.006 0-0.008 0h0c-0.003-0-0.006-0-0.010-0-0.519 0-0.94 0.419-0.944 0.937v0.512h-2.629v-0.512c-0.004-0.519-0.425-0.938-0.944-0.938-0.003 0-0.006 0-0.008 0h0c-0.003-0-0.006-0-0.010-0-0.519 0-0.94 0.419-0.944 0.937v0.512h-2.63v-0.512c-0.004-0.519-0.425-0.938-0.944-0.938-0.003 0-0.006 0-0.008 0h0c-0.003-0-0.006-0-0.010-0-0.519 0-0.94 0.419-0.944 0.937v0.512h-2.134c-2.264 0.002-4.106 1.814-4.106 4.042v18.758c0 2.229 1.842 4.040 4.106 4.040h24.318c2.264 0 4.106-1.813 4.106-4.038v-18.763c0-2.227-1.842-4.038-4.106-4.038zM30.624 26.104c0 1.194-0.987 2.165-2.2 2.165h-24.318c-0.004 0-0.009 0-0.014 0-1.199 0-2.173-0.966-2.185-2.162v-15.336h28.718v15.334zM30.624 8.896h-28.72v-1.55c0-1.192 0.987-2.163 2.2-2.163h2.136v0.362c0.004 0.519 0.425 0.938 0.944 0.938 0.003 0 0.007-0 0.010-0h-0c0.002 0 0.005 0 0.008 0 0.519 0 0.94-0.419 0.944-0.937v-0.36h2.63v0.362c0.004 0.519 0.425 0.938 0.944 0.938 0.003 0 0.007-0 0.010-0h-0.001c0.002 0 0.005 0 0.008 0 0.519 0 0.94-0.419 0.944-0.937v-0.362h2.63v0.362c0.004 0.519 0.425 0.938 0.944 0.938 0.003 0 0.007-0 0.010-0h-0c0.002 0 0.005 0 0.008 0 0.519 0 0.94-0.419 0.944-0.937v-0.362h2.63v0.362c0.004 0.519 0.425 0.938 0.944 0.938 0.003 0 0.007-0 0.010-0h-0c0.002 0 0.005 0 0.008 0 0.519 0 0.94-0.419 0.944-0.937v-0.362h2.63v0.362c0.004 0.519 0.425 0.938 0.944 0.938 0.003 0 0.006 0 0.008-0h-0c0.003 0 0.006 0 0.010 0 0.519 0 0.94-0.419 0.944-0.937v-0.362h2.134c1.213 0 2.2 0.971 2.2 2.163v1.552z"></path>
<path fill="#52555f" style="fill: var(--color4, #52555f)" d="M10.624 12.771h-3.76c-0.003-0-0.006-0-0.010-0-0.519 0-0.94 0.419-0.944 0.937v3.828c0.004 0.519 0.425 0.938 0.944 0.938 0.003 0 0.007-0 0.010-0h3.76c0.003 0 0.006 0 0.010 0 0.519 0 0.94-0.419 0.944-0.937v-3.829c-0.005-0.518-0.425-0.936-0.944-0.936-0.003 0-0.007 0-0.010 0h0.001zM9.67 16.598h-1.854v-1.952h1.856v1.952zM18.144 12.771h-3.76c-0.002-0-0.005-0-0.008-0-0.519 0-0.94 0.419-0.944 0.937v3.828c0.004 0.519 0.425 0.938 0.944 0.938 0.003 0 0.006 0 0.008-0h3.76c0.003 0 0.006 0 0.010 0 0.519 0 0.94-0.419 0.944-0.937v-3.829c-0.005-0.518-0.425-0.936-0.944-0.936-0.003 0-0.006 0-0.008 0h0zM17.192 16.598h-1.854v-1.952h1.856v1.952zM25.666 12.771h-3.76c-0.003-0-0.006-0-0.010-0-0.519 0-0.94 0.419-0.944 0.937v3.828c0.004 0.519 0.425 0.938 0.944 0.938 0.003 0 0.007-0 0.010-0h3.759c0.003 0 0.006 0 0.010 0 0.519 0 0.94-0.419 0.944-0.937v-3.829c-0.005-0.518-0.425-0.936-0.944-0.936-0.003 0-0.007 0-0.010 0h0zM24.714 16.598h-1.856v-1.952h1.856v1.952zM10.624 20.042h-3.76c-0.003-0-0.006-0-0.010-0-0.519 0-0.94 0.419-0.944 0.937v3.828c0.004 0.519 0.425 0.938 0.944 0.938 0.003 0 0.007-0 0.010-0h3.76c0.003 0 0.006 0 0.010 0 0.519 0 0.94-0.419 0.944-0.937v-3.828c-0.004-0.519-0.425-0.938-0.944-0.938-0.003 0-0.007 0-0.010 0h0.001zM9.67 23.869h-1.854v-1.952h1.856v1.952zM18.144 20.042h-3.76c-0.002-0-0.005-0-0.008-0-0.519 0-0.94 0.419-0.944 0.937v3.828c0.004 0.519 0.425 0.938 0.944 0.938 0.003 0 0.006 0 0.008-0h3.76c0.003 0 0.006 0 0.010 0 0.519 0 0.94-0.419 0.944-0.937v-3.828c-0.004-0.519-0.425-0.938-0.944-0.938-0.003 0-0.006 0-0.008 0h0zM17.192 23.869h-1.854v-1.952h1.856v1.952zM25.666 20.042h-3.76c-0.003-0-0.006-0-0.010-0-0.519 0-0.94 0.419-0.944 0.937v3.828c0.004 0.519 0.425 0.938 0.944 0.938 0.003 0 0.007-0 0.010-0h3.759c0.003 0 0.006 0 0.010 0 0.519 0 0.94-0.419 0.944-0.937v-3.828c-0.004-0.519-0.425-0.938-0.944-0.938-0.003 0-0.007 0-0.010 0h0zM24.714 23.869h-1.856v-1.952h1.856v1.952z"></path>
</symbol>
<symbol id="icon-delete" viewBox="0 0 32 32">
<path fill="#52555f" style="fill: var(--color4, #52555f)" d="M28.992 7.152l-0.706-2.117c-0.269-0.791-1.005-1.349-1.871-1.349-0 0-0.001 0-0.001 0h-5.938v-1.932c-0.001-0.968-0.785-1.752-1.753-1.753h-5.438c-0.967 0.002-1.75 0.786-1.751 1.753v1.933h-5.938c-0.85 0-1.602 0.542-1.872 1.349l-0.706 2.117c-0.051 0.149-0.080 0.32-0.080 0.498 0 0.876 0.708 1.586 1.584 1.589h0.738l1.627 20.101c0.121 1.492 1.387 2.66 2.88 2.66h12.805c1.493 0 2.761-1.168 2.88-2.66l1.627-20.101h0.409c0.875-0.003 1.584-0.713 1.584-1.589 0-0.178-0.029-0.349-0.083-0.509l0.003 0.011zM13.41 1.876h5.191v1.81h-5.191v-1.81zM23.584 29.189c-0.046 0.524-0.482 0.932-1.013 0.935h-12.8c-0.532-0.003-0.967-0.411-1.013-0.931l-0-0.004-1.616-19.95h18.057l-1.614 19.95zM4.924 7.365l0.58-1.737c0.013-0.039 0.049-0.067 0.092-0.068h20.818c0.043 0 0.080 0.027 0.092 0.068l0.58 1.737h-22.162z"></path>
<path fill="#52555f" style="fill: var(--color4, #52555f)" d="M20.596 29.122h0.048c0 0 0.001 0 0.001 0 0.501 0 0.909-0.393 0.936-0.887l0-0.002 0.88-16.898c0-0.005 0-0.012 0-0.018 0-0.518-0.42-0.939-0.939-0.939-0.49 0-0.893 0.376-0.935 0.856l-0 0.004-0.88 16.9c-0.001 0.015-0.001 0.032-0.001 0.049 0 0.501 0.393 0.91 0.888 0.936l0.002 0zM10.473 28.236c0.028 0.495 0.436 0.887 0.936 0.887 0.518 0 0.937-0.42 0.937-0.937 0-0.018-0.001-0.036-0.001-0.053l0 0.002-0.921-16.9c-0.028-0.496-0.437-0.888-0.937-0.888-0.518 0-0.938 0.42-0.938 0.938 0 0.018 0.001 0.036 0.001 0.053l-0-0.002 0.923 16.9zM16.016 29.124c0.517 0 0.937-0.419 0.937-0.937v0-16.9c0-0.517-0.419-0.937-0.937-0.937s-0.937 0.419-0.937 0.937v0 16.9c0 0.517 0.42 0.937 0.937 0.937z"></path>
</symbol>
</defs>
</svg>
